<?xml version="1.0" encoding="UTF-8"?>
<svg version="1.1" xmlns="http://www.w3.org/2000/svg" width="561" height="628">
<path d="M0 0 C2.13593796 1.20210181 4.15963517 2.44671198 6.14453125 3.8828125 C6.14453125 4.5428125 6.14453125 5.2028125 6.14453125 5.8828125 C7.13453125 6.2128125 8.12453125 6.5428125 9.14453125 6.8828125 C9.47453125 7.5428125 9.80453125 8.2028125 10.14453125 8.8828125 C16.29318005 8.24526567 22.36098659 7.39861106 28.45703125 6.3828125 C35.67570289 5.21735628 42.83314571 4.2381523 50.14453125 3.8828125 C50.94761719 3.82996094 51.75070313 3.77710938 52.578125 3.72265625 C62.4982788 3.36670689 72.3999115 5.2157787 82.14453125 6.8828125 C82.92763672 7.01671387 83.71074219 7.15061523 84.51757812 7.28857422 C92.99071017 8.814848 99.62317555 10.9634697 106.95703125 15.5078125 C110.56369881 17.68904819 113.01453294 19.13685389 117.32421875 18.16796875 C120.36560834 16.60351614 120.36560834 16.60351614 123.265625 14.69921875 C134.0852521 7.87272404 148.96987793 8.74739495 161.14453125 10.8828125 C174.18589023 14.04254748 189.05189969 21.14136005 196.51953125 32.6328125 C203.62637088 45.74098337 203.8006165 60.60186072 200.14453125 74.8828125 C199.22291369 77.31253152 198.21208443 79.62368766 197.046875 81.9453125 C195.58749699 85.07886874 194.85863954 86.92927231 195.88208008 90.34277344 C196.28450928 91.25833008 196.68693848 92.17388672 197.1015625 93.1171875 C197.77409058 94.67276367 197.77409058 94.67276367 198.46020508 96.25976562 C198.95415771 97.37287109 199.44811035 98.48597656 199.95703125 99.6328125 C200.97837615 101.99196609 201.9991979 104.35134623 203.01953125 106.7109375 C203.54160156 107.90783203 204.06367188 109.10472656 204.6015625 110.33789062 C223.09541213 152.8269249 223.09541213 152.8269249 224.14453125 172.8828125 C224.18304199 173.615 224.22155273 174.3471875 224.26123047 175.1015625 C226.29255265 221.67038156 199.86600999 264.11431931 175.51757812 301.75585938 C174.2001197 303.7967018 172.89838025 305.84690557 171.59765625 307.8984375 C163.25630342 320.90249428 153.27655313 332.19410122 142.14453125 342.8828125 C143.01078125 343.49769531 143.01078125 343.49769531 143.89453125 344.125 C145.00828125 344.93324219 145.00828125 344.93324219 146.14453125 345.7578125 C146.88703125 346.29148437 147.62953125 346.82515625 148.39453125 347.375 C148.97203125 347.87257813 149.54953125 348.37015625 150.14453125 348.8828125 C150.14453125 349.5428125 150.14453125 350.2028125 150.14453125 350.8828125 C154.45769015 348.89066433 157.9020109 346.6414918 161.51953125 343.5703125 C162.48117187 342.76980469 163.4428125 341.96929687 164.43359375 341.14453125 C165.32820313 340.39816406 166.2228125 339.65179688 167.14453125 338.8828125 C179.21414498 329.0011168 195.22394372 317.7714688 211.50537109 319.07128906 C213.89839723 319.41123852 216.26828585 319.81590063 218.64453125 320.2578125 C229.33328256 322.56245899 229.33328256 322.56245899 240.08203125 322.3203125 C243.24303377 321.86874071 244.58210125 322.22164809 247.58203125 323.0703125 C258.45555739 325.45599659 271.21022961 318.94831828 281.3671875 315.25 C282.01961426 315.01506836 282.67204102 314.78013672 283.34423828 314.53808594 C284.86569665 313.98430315 286.3791607 313.40863049 287.890625 312.828125 C291.75563388 311.70527728 295.59891933 311.09576286 299.57128906 310.46777344 C303.60639242 309.80720309 307.6203836 309.06204115 311.63671875 308.296875 C312.76531059 308.08222343 312.76531059 308.08222343 313.91670227 307.86323547 C315.48126028 307.56517506 317.04573753 307.26669043 318.61013794 306.96780396 C322.7002991 306.18692722 326.79159517 305.41203954 330.8828125 304.63671875 C331.68422165 304.48478561 332.4856308 304.33285248 333.31132507 304.17631531 C339.94090001 302.92001869 346.57139671 301.66927216 353.20703125 300.4453125 C354.0789209 300.2817627 354.95081055 300.11821289 355.84912109 299.94970703 C359.35999112 299.307134 362.56242471 298.8828125 366.14453125 298.8828125 C366.14453125 326.9328125 366.14453125 354.9828125 366.14453125 383.8828125 C356.24453125 384.5428125 346.34453125 385.2028125 336.14453125 385.8828125 C330.10660767 386.65918996 330.10660767 386.65918996 324.078125 387.50390625 C315.11348994 388.66178854 305.97809536 387.70820438 296.98388672 387.23681641 C292.02533438 386.98477656 287.1112674 386.85467863 282.14453125 386.9453125 C276.71967288 387.00839225 271.64174706 386.2463999 266.3046875 385.33203125 C258.0496886 384.08375846 258.0496886 384.08375846 250.14453125 385.8828125 C248.10556157 386.00052621 246.06647537 386.11656058 244.02685547 386.22241211 C232.40704025 386.96576348 224.70670452 390.50879873 215.14453125 396.8828125 C213.67175482 397.83906237 212.19776522 398.793446 210.72265625 399.74609375 C208.51104051 401.17800568 206.30112825 402.61210771 204.09741211 404.05615234 C191.16027605 412.50421815 180.61466177 415.69603452 165.14453125 414.8828125 C164.48453125 414.5528125 163.82453125 414.2228125 163.14453125 413.8828125 C163.56605469 414.84703125 163.98757813 415.81125 164.421875 416.8046875 C164.97542157 418.08065926 165.52879806 419.35670483 166.08203125 420.6328125 C166.35982422 421.26703125 166.63761719 421.90125 166.92382812 422.5546875 C170.02577668 429.73027935 171.29232854 435.79378467 169.14453125 443.4453125 C165.87539101 449.06414728 161.51913347 453.5923947 155.08203125 455.3203125 C148.53710058 456.39192967 141.75216324 456.03951523 135.14453125 455.8828125 C137.74159866 461.2933696 140.39947539 464.2187646 145.33984375 467.62109375 C147.14453125 468.8828125 147.14453125 468.8828125 149.14453125 470.8828125 C150.07265625 471.1509375 151.00078125 471.4190625 151.95703125 471.6953125 C155.70977482 473.09339344 157.56951724 474.85338425 160.14453125 477.8828125 C160.14453125 478.5428125 160.14453125 479.2028125 160.14453125 479.8828125 C161.13453125 480.2128125 162.12453125 480.5428125 163.14453125 480.8828125 C164.8984375 482.80859375 164.8984375 482.80859375 166.70703125 485.1953125 C167.30644531 485.97519531 167.90585937 486.75507813 168.5234375 487.55859375 C170.14453125 489.8828125 170.14453125 489.8828125 171.171875 492.05078125 C172.13867764 494.22181031 172.13867764 494.22181031 175.14453125 495.8828125 C175.12132812 494.82320313 175.098125 493.76359375 175.07421875 492.671875 C175.05546181 491.2838612 175.03726153 489.8958398 175.01953125 488.5078125 C175.00277344 487.80914062 174.98601562 487.11046875 174.96875 486.390625 C174.95108858 484.55383764 175.04149864 482.71679287 175.14453125 480.8828125 C177.14453125 478.8828125 177.14453125 478.8828125 179.59765625 478.83203125 C182.14453125 479.8828125 182.14453125 479.8828125 183.69140625 482.90234375 C184.0884375 484.15402344 184.48546875 485.40570313 184.89453125 486.6953125 C185.50554687 488.56123047 185.50554687 488.56123047 186.12890625 490.46484375 C186.4640625 491.59277344 186.79921875 492.72070312 187.14453125 493.8828125 C187.45390625 494.90568359 187.45390625 494.90568359 187.76953125 495.94921875 C190.34456812 509.22675263 186.16423585 520.80657432 179.14453125 531.8828125 C174.92012278 537.78648894 170.18634347 543.08607255 164.9609375 548.1171875 C163.82917294 549.21731133 162.72618415 550.34887559 161.671875 551.5234375 C160.39453125 552.9453125 160.39453125 552.9453125 158.14453125 554.8828125 C155.83436528 554.75446995 154.7784738 554.51675505 153.14453125 552.8828125 C152.80223837 549.71660337 152.88821026 548.27797403 154.64453125 545.5703125 C155.38703125 544.735 155.38703125 544.735 156.14453125 543.8828125 C155.77501755 541.78970634 155.77501755 541.78970634 154.14453125 539.8828125 C151.23720021 539.40029327 148.57122385 539.14717881 145.64453125 539.0078125 C138.59486062 538.46553014 132.11654304 537.34757122 125.39453125 535.1328125 C124.66943359 534.90480957 123.94433594 534.67680664 123.19726562 534.44189453 C118.15736891 532.68730723 113.48427519 530.15800007 110.14453125 525.8828125 C110.14453125 524.5628125 110.14453125 523.2428125 110.14453125 521.8828125 C108.53134847 520.44524518 108.53134847 520.44524518 106.39453125 519.3828125 C103.11047063 517.58266075 100.71543535 515.61584569 98.14453125 512.8828125 C97.77279785 513.30054932 97.40106445 513.71828613 97.01806641 514.14868164 C82.77871008 530.04893053 67.0427785 542.42102222 44.86474609 544.05029297 C40.28193733 544.20677912 35.72345107 544.10201611 31.14453125 543.8828125 C31.28223978 551.86990749 32.18365568 557.63269738 36.05078125 564.625 C38.29124056 569.24994815 37.71406024 572.98349955 36.3046875 577.68359375 C35.05246288 581.25125257 33.78347412 584.72262677 31.95703125 588.0390625 C30.84875646 590.0029475 30.84875646 590.0029475 32.01953125 592.6328125 C32.39078125 593.3753125 32.76203125 594.1178125 33.14453125 594.8828125 C33.51578125 594.2228125 33.88703125 593.5628125 34.26953125 592.8828125 C36.14453125 590.8828125 36.14453125 590.8828125 39.20703125 590.5078125 C42.14453125 590.8828125 42.14453125 590.8828125 44.14453125 592.8828125 C44.22707591 595.77187575 43.55700838 597.39956182 41.6875 599.58984375 C39.87789567 601.39944808 38.01929265 603.14090821 36.14453125 604.8828125 C35.37753906 605.6665625 34.61054688 606.4503125 33.8203125 607.2578125 C19.6635298 621.14592633 6.01278233 627.1561061 -13.82519531 627.27661133 C-22.7359556 627.16645469 -32.45508819 626.10431581 -39.734375 620.4140625 C-41.49012824 618.01596052 -41.04673952 615.7518741 -40.85546875 612.8828125 C-35.10546875 611.8828125 -35.10546875 611.8828125 -32.85546875 611.8828125 C-34.90942433 598.69851508 -34.90942433 598.69851508 -41.52734375 587.453125 C-45.55068664 582.6961137 -45.08821609 576.22103895 -45.12109375 570.3359375 C-44.85546875 567.8828125 -44.85546875 567.8828125 -42.85546875 564.8828125 C-42.19546875 564.8828125 -41.53546875 564.8828125 -40.85546875 564.8828125 C-40.99766846 564.3480127 -41.13986816 563.81321289 -41.28637695 563.26220703 C-43.03524096 555.82091706 -43.12859214 548.49972459 -43.0612793 540.89599609 C-43.04294263 538.75476193 -43.0407709 536.61396112 -43.04101562 534.47265625 C-43.02395639 527.85886331 -42.83343522 521.42655875 -41.85546875 514.8828125 C-40.52017915 503.91651475 -40.52017915 503.91651475 -43.6640625 493.64453125 C-45.80194632 491.17142725 -48.02106258 488.83352192 -50.32763672 486.51855469 C-67.85992249 467.74797069 -72.63290471 445.76076332 -71.85546875 420.8828125 C-72.32855469 421.22054688 -72.80164063 421.55828125 -73.2890625 421.90625 C-80.70603976 426.90873369 -88.88661371 429.11989595 -97.85546875 427.8828125 C-104.24793227 426.04445698 -108.07975677 423.31039847 -111.85546875 417.8828125 C-114.37446466 412.84482068 -113.25734719 405.38985667 -111.85546875 400.1328125 C-111.52546875 399.3903125 -111.19546875 398.6478125 -110.85546875 397.8828125 C-111.51546875 397.5528125 -112.17546875 397.2228125 -112.85546875 396.8828125 C-113.37491858 390.82256446 -110.52718558 387.58040566 -106.79296875 383.1328125 C-103.18916077 379.08522349 -99.23045296 375.51694493 -95.16796875 371.9375 C-92.62209262 369.67545466 -90.22271512 367.32896709 -87.85546875 364.8828125 C-93.8306359 351.70313759 -111.12719082 341.53230386 -123.66796875 335.5078125 C-133.33141359 330.81326832 -142.13531738 324.51285323 -150.79296875 318.1953125 C-151.39520264 317.75622559 -151.99743652 317.31713867 -152.61791992 316.86474609 C-165.76682762 307.13357218 -173.38433308 296.83006977 -176.31640625 280.28125 C-176.55084864 278.48808251 -176.71406549 276.68570406 -176.85546875 274.8828125 C-177.60957031 274.78613281 -178.36367187 274.68945312 -179.140625 274.58984375 C-184.77340396 273.1228898 -187.68716393 267.75056298 -190.63671875 263.03515625 C-195.0294041 255.00607335 -196.25130248 249.02994936 -193.85546875 240.1953125 C-190.58072116 234.7715118 -186.56883327 230.60960657 -180.35546875 228.9453125 C-179.11796875 228.914375 -179.11796875 228.914375 -177.85546875 228.8828125 C-177.613125 228.01140625 -177.37078125 227.14 -177.12109375 226.2421875 C-175.7363286 222.56657631 -174.08538032 220.17111476 -171.60546875 217.1328125 C-170.96859131 216.35139893 -170.96859131 216.35139893 -170.31884766 215.55419922 C-167.27834647 212.02006119 -164.1043145 209.61665898 -160.14477539 207.18554688 C-154.05490614 203.52244877 -154.05490614 203.52244877 -150.7890625 197.359375 C-150.61977371 192.14964891 -150.65994459 187.47426952 -154.35546875 183.5078125 C-155.18046875 182.6415625 -156.00546875 181.7753125 -156.85546875 180.8828125 C-157.68399283 174.66888193 -156.46031322 168.59791903 -153.85546875 162.8828125 C-153.19562988 162.29459717 -152.53579102 161.70638184 -151.85595703 161.1003418 C-149.38193268 158.3579006 -149.18851049 156.74683969 -148.80078125 153.10546875 C-148.66430176 151.96223145 -148.52782227 150.81899414 -148.38720703 149.64111328 C-148.2529834 148.42149902 -148.11875977 147.20188477 -147.98046875 145.9453125 C-145.87376664 129.31199032 -142.09341019 113.83898492 -135.0546875 98.59765625 C-133.65826424 95.43637232 -132.93951296 92.74426569 -132.60546875 89.3203125 C-131.85546875 86.8828125 -131.85546875 86.8828125 -129.66796875 85.6328125 C-126.70824707 83.7912079 -125.85311634 82.58858119 -124.04296875 79.6953125 C-120.95418965 74.80140275 -117.32652195 70.57848035 -112.85546875 66.8828125 C-112.19546875 66.8828125 -111.53546875 66.8828125 -110.85546875 66.8828125 C-110.60796875 66.29628906 -110.36046875 65.70976563 -110.10546875 65.10546875 C-102.94283384 52.36940856 -80.94916286 43.62490638 -68.40063477 37.49462891 C-62.79144994 34.67200544 -58.42287972 31.16901622 -53.85546875 26.8828125 C-53.00339844 26.12355469 -52.15132812 25.36429688 -51.2734375 24.58203125 C-50.16935547 23.58623047 -50.16935547 23.58623047 -49.04296875 22.5703125 C-48.19605469 21.81234375 -47.34914062 21.054375 -46.4765625 20.2734375 C-44.71388628 18.6657507 -42.97693014 17.02945072 -41.265625 15.3671875 C-30.64018084 5.19422188 -15.45237226 -6.04566138 0 0 Z M172.14453125 503.8828125 C170.57776766 505.44957609 170.68475364 507.28612404 170.33203125 509.4453125 C168.43932619 519.03138703 163.82417539 524.87891379 157.14453125 531.8828125 C159.50406219 534.24234344 160.92348742 534.37422663 164.14453125 534.8828125 C167.67943854 529.2081498 169.87759535 523.47223441 171.95703125 517.1328125 C172.44333008 515.71548828 172.44333008 515.71548828 172.93945312 514.26953125 C173.24044922 513.36332031 173.54144531 512.45710937 173.8515625 511.5234375 C174.12460205 510.70391602 174.3976416 509.88439453 174.67895508 509.04003906 C175.37203281 506.71656886 175.37203281 506.71656886 174.14453125 503.8828125 C173.48453125 503.8828125 172.82453125 503.8828125 172.14453125 503.8828125 Z M16.83203125 599.6953125 C4.01221933 606.21333736 -8.89045683 607.37024216 -22.66796875 603.3203125 C-24.04984375 602.8459375 -25.43171875 602.3715625 -26.85546875 601.8828125 C-25.86546875 605.8428125 -24.87546875 609.8028125 -23.85546875 613.8828125 C-5.43840186 615.12162866 10.19442618 609.74887091 26.14453125 600.8828125 C25.64953125 598.9028125 25.64953125 598.9028125 25.14453125 596.8828125 C21.51015918 596.8828125 19.99337185 597.93711089 16.83203125 599.6953125 Z " fill="#FEFE00" transform="translate(194.85546875,1.1171875)"/>
<path d="M0 0 C0 28.05 0 56.1 0 85 C-9.9 85.66 -19.8 86.32 -30 87 C-36.03792358 87.77637746 -36.03792358 87.77637746 -42.06640625 88.62109375 C-51.03104131 89.77897604 -60.16643589 88.82539188 -69.16064453 88.35400391 C-74.11919687 88.10196406 -79.03326385 87.97186613 -84 88.0625 C-89.42485837 88.12557975 -94.50278419 87.3635874 -99.83984375 86.44921875 C-108.09484265 85.20094596 -108.09484265 85.20094596 -116 87 C-118.03896968 87.11771371 -120.07805588 87.23374808 -122.11767578 87.33959961 C-133.737491 88.08295098 -141.43782673 91.62598623 -151 98 C-152.47277643 98.95624987 -153.94676603 99.9106335 -155.421875 100.86328125 C-157.63349074 102.29519318 -159.843403 103.72929521 -162.04711914 105.17333984 C-174.9842552 113.62140565 -185.52986948 116.81322202 -201 116 C-201.66 115.67 -202.32 115.34 -203 115 C-202.57847656 115.96421875 -202.15695312 116.9284375 -201.72265625 117.921875 C-201.16910968 119.19784676 -200.61573319 120.47389233 -200.0625 121.75 C-199.78470703 122.38421875 -199.50691406 123.0184375 -199.22070312 123.671875 C-196.11875457 130.84746685 -194.85220271 136.91097217 -197 144.5625 C-200.26914024 150.18133478 -204.62539778 154.7095822 -211.0625 156.4375 C-217.60743067 157.50911717 -224.39236801 157.15670273 -231 157 C-228.40293259 162.4105571 -225.74505586 165.3359521 -220.8046875 168.73828125 C-219 170 -219 170 -217 172 C-216.071875 172.268125 -215.14375 172.53625 -214.1875 172.8125 C-210.43475643 174.21058094 -208.57501401 175.97057175 -206 179 C-206 179.66 -206 180.32 -206 181 C-205.01 181.33 -204.02 181.66 -203 182 C-201.24609375 183.92578125 -201.24609375 183.92578125 -199.4375 186.3125 C-198.53837891 187.48232422 -198.53837891 187.48232422 -197.62109375 188.67578125 C-196 191 -196 191 -194.97265625 193.16796875 C-194.00585361 195.33899781 -194.00585361 195.33899781 -191 197 C-191.03480469 195.41058594 -191.03480469 195.41058594 -191.0703125 193.7890625 C-191.08906944 192.4010487 -191.10726972 191.0130273 -191.125 189.625 C-191.14175781 188.92632812 -191.15851563 188.22765625 -191.17578125 187.5078125 C-191.19344267 185.67102514 -191.10303261 183.83398037 -191 182 C-189 180 -189 180 -186.546875 179.94921875 C-184 181 -184 181 -182.453125 184.01953125 C-181.85757813 185.89705078 -181.85757813 185.89705078 -181.25 187.8125 C-180.63898438 189.67841797 -180.63898438 189.67841797 -180.015625 191.58203125 C-179.68046875 192.70996094 -179.3453125 193.83789062 -179 195 C-178.79375 195.68191406 -178.5875 196.36382812 -178.375 197.06640625 C-175.79996313 210.34394013 -179.9802954 221.92376182 -187 233 C-191.22440847 238.90367644 -195.95818778 244.20326005 -201.18359375 249.234375 C-202.31535831 250.33449883 -203.4183471 251.46606309 -204.47265625 252.640625 C-205.75 254.0625 -205.75 254.0625 -208 256 C-210.31016597 255.87165745 -211.36605745 255.63394255 -213 254 C-213.34229288 250.83379087 -213.25632099 249.39516153 -211.5 246.6875 C-211.005 246.130625 -210.51 245.57375 -210 245 C-210.3695137 242.90689384 -210.3695137 242.90689384 -212 241 C-214.90733104 240.51748077 -217.5733074 240.26436631 -220.5 240.125 C-227.54967063 239.58271764 -234.02798821 238.46475872 -240.75 236.25 C-241.83764648 235.90799561 -241.83764648 235.90799561 -242.94726562 235.55908203 C-247.98716234 233.80449473 -252.66025606 231.27518757 -256 227 C-256 225.68 -256 224.36 -256 223 C-257.61318278 221.56243268 -257.61318278 221.56243268 -259.75 220.5 C-263.03406062 218.69984825 -265.4290959 216.73303319 -268 214 C-268.3717334 214.41773682 -268.7434668 214.83547363 -269.12646484 215.26586914 C-283.36582117 231.16611803 -299.10175275 243.53820972 -321.27978516 245.16748047 C-325.86259392 245.32396662 -330.42108018 245.21920361 -335 245 C-334.86229147 252.98709499 -333.96087557 258.74988488 -330.09375 265.7421875 C-327.85329069 270.36713565 -328.43047101 274.10068705 -329.83984375 278.80078125 C-331.09206837 282.36844007 -332.36105713 285.83981427 -334.1875 289.15625 C-335.29577479 291.120135 -335.29577479 291.120135 -334.125 293.75 C-333.75375 294.4925 -333.3825 295.235 -333 296 C-332.62875 295.34 -332.2575 294.68 -331.875 294 C-330 292 -330 292 -326.9375 291.625 C-324 292 -324 292 -322 294 C-321.91745534 296.88906325 -322.58752287 298.51674932 -324.45703125 300.70703125 C-326.26663558 302.51663558 -328.1252386 304.25809571 -330 306 C-330.76699219 306.78375 -331.53398437 307.5675 -332.32421875 308.375 C-346.48100145 322.26311383 -360.13174892 328.2732936 -379.96972656 328.39379883 C-388.88048685 328.28364219 -398.59961944 327.22150331 -405.87890625 321.53125 C-407.63465949 319.13314802 -407.19127077 316.8690616 -407 314 C-401.25 313 -401.25 313 -399 313 C-401.05395558 299.81570258 -401.05395558 299.81570258 -407.671875 288.5703125 C-411.69521789 283.8133012 -411.23274734 277.33822645 -411.265625 271.453125 C-411 269 -411 269 -409 266 C-408.34 266 -407.68 266 -407 266 C-407.14219971 265.4652002 -407.28439941 264.93040039 -407.4309082 264.37939453 C-409.17977221 256.93810456 -409.27312339 249.61691209 -409.20581055 242.01318359 C-409.18747388 239.87194943 -409.18530215 237.73114862 -409.18554688 235.58984375 C-409.16848764 228.97605081 -408.97796647 222.54374625 -408 216 C-406.6647104 205.03370225 -406.6647104 205.03370225 -409.80859375 194.76171875 C-411.94647757 192.28861475 -414.16559383 189.95070942 -416.47216797 187.63574219 C-434.00445374 168.86515819 -438.77743596 146.87795082 -438 122 C-438.47308594 122.33773437 -438.94617188 122.67546875 -439.43359375 123.0234375 C-446.85057101 128.02592119 -455.03114496 130.23708345 -464 129 C-470.39246352 127.16164448 -474.22428802 124.42758597 -478 119 C-480.51899591 113.96200818 -479.40187844 106.50704417 -478 101.25 C-477.67 100.5075 -477.34 99.765 -477 99 C-477.66 98.67 -478.32 98.34 -479 98 C-479.51944983 91.93975196 -476.67171683 88.69759316 -472.9375 84.25 C-469.35615594 80.23707748 -465.46812763 76.6504774 -461.41015625 73.125 C-459.03541388 71.08696003 -459.03541388 71.08696003 -457.12109375 69.0625 C-454.89404076 66.83027983 -453.13829507 65.26372381 -450.02734375 64.54296875 C-443.93545401 64.59824906 -439.9564559 67.92674468 -435.20483398 71.4128418 C-416.67684607 84.76813527 -391.61357004 85.97886452 -369.73828125 82.671875 C-349.48735492 79.03221008 -329.51368472 71.12231628 -311.13671875 61.984375 C-300.1301667 56.62378178 -289.32101125 52.68996604 -277.5 49.6875 C-276.16902537 49.33882626 -274.83829492 48.98921912 -273.5078125 48.63867188 C-259.02706711 44.87162198 -259.02706711 44.87162198 -252.5 44.8125 C-251.7884375 44.79832031 -251.076875 44.78414063 -250.34375 44.76953125 C-248 45 -248 45 -245.171875 45.99609375 C-241.55461914 47.14096414 -238.53694745 47.26611467 -234.75 47.25 C-233.52796875 47.25515625 -232.3059375 47.2603125 -231.046875 47.265625 C-227.89081635 47.31949811 -227.89081635 47.31949811 -226 45 C-221.62768671 45.23634126 -219.13456443 47.04455354 -216 50 C-216 50.66 -216 51.32 -216 52 C-211.6868411 50.00785183 -208.24252035 47.7586793 -204.625 44.6875 C-203.66335938 43.88699219 -202.70171875 43.08648437 -201.7109375 42.26171875 C-200.81632812 41.51535156 -199.92171875 40.76898438 -199 40 C-186.93038627 30.1183043 -170.92058753 18.8886563 -154.63916016 20.18847656 C-152.24613402 20.52842602 -149.8762454 20.93308813 -147.5 21.375 C-136.81124869 23.67964649 -136.81124869 23.67964649 -126.0625 23.4375 C-122.90149748 22.98592821 -121.56243 23.33883559 -118.5625 24.1875 C-107.68897386 26.57318409 -94.93430164 20.06550578 -84.77734375 16.3671875 C-84.12491699 16.13225586 -83.47249023 15.89732422 -82.80029297 15.65527344 C-81.2788346 15.10149065 -79.76537055 14.52581799 -78.25390625 13.9453125 C-74.38889737 12.82246478 -70.54561192 12.21295036 -66.57324219 11.58496094 C-62.53813883 10.92439059 -58.52414765 10.17922865 -54.5078125 9.4140625 C-53.75541794 9.27096146 -53.00302338 9.12786041 -52.22782898 8.98042297 C-50.66327097 8.68236256 -49.09879372 8.38387793 -47.53439331 8.08499146 C-43.44423215 7.30411472 -39.35293608 6.52922704 -35.26171875 5.75390625 C-34.4603096 5.60197311 -33.65890045 5.45003998 -32.83320618 5.29350281 C-26.20363124 4.03720619 -19.57313454 2.78645966 -12.9375 1.5625 C-12.06561035 1.3989502 -11.1937207 1.23540039 -10.29541016 1.06689453 C-6.78454013 0.4243215 -3.58210654 0 0 0 Z M-194 205 C-195.56676359 206.56676359 -195.45977761 208.40331154 -195.8125 210.5625 C-197.70520506 220.14857453 -202.32035586 225.99610129 -209 233 C-206.64046906 235.35953094 -205.22104383 235.49141413 -202 236 C-198.46509271 230.3253373 -196.2669359 224.58942191 -194.1875 218.25 C-193.70120117 216.83267578 -193.70120117 216.83267578 -193.20507812 215.38671875 C-192.90408203 214.48050781 -192.60308594 213.57429687 -192.29296875 212.640625 C-192.0199292 211.82110352 -191.74688965 211.00158203 -191.46557617 210.15722656 C-190.77249844 207.83375636 -190.77249844 207.83375636 -192 205 C-192.66 205 -193.32 205 -194 205 Z M-349.3125 300.8125 C-362.13231192 307.33052486 -375.03498808 308.48742966 -388.8125 304.4375 C-390.194375 303.963125 -391.57625 303.48875 -393 303 C-392.01 306.96 -391.02 310.92 -390 315 C-371.58293311 316.23881616 -355.95010507 310.86605841 -340 302 C-340.495 300.02 -340.495 300.02 -341 298 C-344.63437207 298 -346.1511594 299.05429839 -349.3125 300.8125 Z " fill="#656A6E" transform="translate(561,300)"/>
<path d="M0 0 C0.95648438 -0.03738281 1.91296875 -0.07476562 2.8984375 -0.11328125 C6.48322165 0.44652029 7.4338193 1.44497177 9.625 4.3125 C11.29296875 7.625 11.29296875 7.625 12.8125 11.3125 C13.57626953 13.1378125 13.57626953 13.1378125 14.35546875 15 C16.83863777 21.47916101 17.51677821 27.13554013 15.625 33.875 C12.35585976 39.49383478 7.99960222 44.0220822 1.5625 45.75 C-4.98243067 46.82161717 -11.76736801 46.46920273 -18.375 46.3125 C-15.77793259 51.7230571 -13.12005586 54.6484521 -8.1796875 58.05078125 C-6.375 59.3125 -6.375 59.3125 -4.375 61.3125 C-3.446875 61.580625 -2.51875 61.84875 -1.5625 62.125 C2.19024357 63.52308094 4.04998599 65.28307175 6.625 68.3125 C6.625 68.9725 6.625 69.6325 6.625 70.3125 C7.615 70.6425 8.605 70.9725 9.625 71.3125 C11.37890625 73.23828125 11.37890625 73.23828125 13.1875 75.625 C13.78691406 76.40488281 14.38632812 77.18476563 15.00390625 77.98828125 C16.625 80.3125 16.625 80.3125 17.65234375 82.48046875 C18.61914639 84.65149781 18.61914639 84.65149781 21.625 86.3125 C21.60179687 85.25289063 21.57859375 84.19328125 21.5546875 83.1015625 C21.53593056 81.7135487 21.51773028 80.3255273 21.5 78.9375 C21.48324219 78.23882812 21.46648437 77.54015625 21.44921875 76.8203125 C21.43155733 74.98352514 21.52196739 73.14648037 21.625 71.3125 C23.625 69.3125 23.625 69.3125 26.078125 69.26171875 C28.625 70.3125 28.625 70.3125 30.171875 73.33203125 C30.76742187 75.20955078 30.76742187 75.20955078 31.375 77.125 C31.98601562 78.99091797 31.98601562 78.99091797 32.609375 80.89453125 C32.94453125 82.02246094 33.2796875 83.15039062 33.625 84.3125 C33.83125 84.99441406 34.0375 85.67632812 34.25 86.37890625 C36.82503687 99.65644013 32.6447046 111.23626182 25.625 122.3125 C21.40059153 128.21617644 16.66681222 133.51576005 11.44140625 138.546875 C10.30964169 139.64699883 9.2066529 140.77856309 8.15234375 141.953125 C6.875 143.375 6.875 143.375 4.625 145.3125 C2.31483403 145.18415745 1.25894255 144.94644255 -0.375 143.3125 C-0.71729288 140.14629087 -0.63132099 138.70766153 1.125 136 C1.62 135.443125 2.115 134.88625 2.625 134.3125 C2.2554863 132.21939384 2.2554863 132.21939384 0.625 130.3125 C-2.28233104 129.82998077 -4.9483074 129.57686631 -7.875 129.4375 C-14.92467063 128.89521764 -21.40298821 127.77725872 -28.125 125.5625 C-28.85009766 125.33449707 -29.57519531 125.10649414 -30.32226562 124.87158203 C-35.36216234 123.11699473 -40.03525606 120.58768757 -43.375 116.3125 C-43.375 114.9925 -43.375 113.6725 -43.375 112.3125 C-44.98818278 110.87493268 -44.98818278 110.87493268 -47.125 109.8125 C-50.40906062 108.01234825 -52.8040959 106.04553319 -55.375 103.3125 C-55.9326001 103.93910522 -55.9326001 103.93910522 -56.50146484 104.57836914 C-70.74082117 120.47861803 -86.47675275 132.85070972 -108.65478516 134.47998047 C-113.23759392 134.63646662 -117.79608018 134.53170361 -122.375 134.3125 C-122.23729147 142.29959499 -121.33587557 148.06238488 -117.46875 155.0546875 C-115.22829069 159.67963565 -115.80547101 163.41318705 -117.21484375 168.11328125 C-118.46706837 171.68094007 -119.73605713 175.15231427 -121.5625 178.46875 C-122.67077479 180.432635 -122.67077479 180.432635 -121.5 183.0625 C-121.12875 183.805 -120.7575 184.5475 -120.375 185.3125 C-119.818125 184.3225 -119.818125 184.3225 -119.25 183.3125 C-117.375 181.3125 -117.375 181.3125 -114.3125 180.9375 C-111.375 181.3125 -111.375 181.3125 -109.375 183.3125 C-109.29245534 186.20156325 -109.96252287 187.82924932 -111.83203125 190.01953125 C-113.64163558 191.82913558 -115.5002386 193.57059571 -117.375 195.3125 C-118.14199219 196.09625 -118.90898437 196.88 -119.69921875 197.6875 C-133.85600145 211.57561383 -147.50674892 217.5857936 -167.34472656 217.70629883 C-176.25548685 217.59614219 -185.97461944 216.53400331 -193.25390625 210.84375 C-195.00965949 208.44564802 -194.56627077 206.1815616 -194.375 203.3125 C-188.625 202.3125 -188.625 202.3125 -186.375 202.3125 C-188.42895558 189.12820258 -188.42895558 189.12820258 -195.046875 177.8828125 C-199.07021789 173.1258012 -198.60774734 166.65072645 -198.640625 160.765625 C-198.375 158.3125 -198.375 158.3125 -196.375 155.3125 C-195.715 155.3125 -195.055 155.3125 -194.375 155.3125 C-194.51719971 154.7777002 -194.65939941 154.24290039 -194.8059082 153.69189453 C-196.55477221 146.25060456 -196.64812339 138.92941209 -196.58081055 131.32568359 C-196.56247388 129.18444943 -196.56030215 127.04364862 -196.56054688 124.90234375 C-196.54348764 118.28855081 -196.35296647 111.85624625 -195.375 105.3125 C-194.0397104 94.34620225 -194.0397104 94.34620225 -197.18359375 84.07421875 C-199.32147757 81.60111475 -201.54059383 79.26320942 -203.84716797 76.94824219 C-219.98683294 59.66863923 -226.01039382 38.84688687 -225.578125 15.6640625 C-225.375 12.3125 -225.375 12.3125 -224.375 10.3125 C-220.50977079 9.64028622 -218.45741947 9.55692123 -215.17578125 11.84765625 C-213.53090642 13.25871417 -211.88640288 14.67020497 -210.2421875 16.08203125 C-200.81432008 23.41624419 -188.1865645 28.56136689 -176.375 30.3125 C-173.31074769 42.4265108 -171.48506628 54.57117125 -170.71875 67.04296875 C-170.3491723 69.48302153 -169.48845867 71.13084521 -168.375 73.3125 C-168.41625 74.281875 -168.4575 75.25125 -168.5 76.25 C-168.3386581 80.20287658 -167.17563848 81.58965703 -164.375 84.3125 C-162.24553397 85.18215506 -162.24553397 85.18215506 -160.375 85.3125 C-160.849375 84.219375 -161.32375 83.12625 -161.8125 82 C-164.00659182 76.94404928 -164.31389121 73.84152601 -163.375 68.3125 C-162.385 68.3125 -161.395 68.3125 -160.375 68.3125 C-159.375 73.3125 -159.375 73.3125 -159.0625 75.8125 C-158.16416198 79.07918372 -156.72536454 80.89498219 -154.375 83.3125 C-152.24553397 84.18215506 -152.24553397 84.18215506 -150.375 84.3125 C-151.64474972 79.89727891 -151.64474972 79.89727891 -154.375 76.3125 C-154.5703125 74.1484375 -154.5703125 74.1484375 -154.5 71.6875 C-154.48195313 70.87023437 -154.46390625 70.05296875 -154.4453125 69.2109375 C-154.42210937 68.58445312 -154.39890625 67.95796875 -154.375 67.3125 C-153.715 67.3125 -153.055 67.3125 -152.375 67.3125 C-151.9625 68.364375 -151.55 69.41625 -151.125 70.5 C-149.65110651 73.91140605 -147.9876408 76.62068826 -145.375 79.3125 C-143.24553397 80.18215506 -143.24553397 80.18215506 -141.375 80.3125 C-142.35101061 76.81512864 -143.21695917 74.50214899 -145.5625 71.6875 C-147.375 69.3125 -147.375 69.3125 -147.125 67 C-146.8775 66.443125 -146.63 65.88625 -146.375 65.3125 C-145.055 65.3125 -143.735 65.3125 -142.375 65.3125 C-142.148125 66.529375 -141.92125 67.74625 -141.6875 69 C-140.61580033 73.27919795 -138.94115657 75.59542833 -135.375 78.3125 C-134.055 78.3125 -132.735 78.3125 -131.375 78.3125 C-131.7588822 74.9855209 -132.6816049 73.96939452 -135 71.375 C-137.375 68.3125 -137.375 68.3125 -137.1875 65.4375 C-136.919375 64.73625 -136.65125 64.035 -136.375 63.3125 C-135.385 63.3125 -134.395 63.3125 -133.375 63.3125 C-132.055 65.9525 -130.735 68.5925 -129.375 71.3125 C-128.385 71.3125 -127.395 71.3125 -126.375 71.3125 C-126.87 66.8575 -126.87 66.8575 -127.375 62.3125 C-124.375 65.3125 -124.375 65.3125 -121.9375 68.4375 C-119.19255995 71.5784443 -119.19255995 71.5784443 -115.375 72.3125 C-116.64446514 67.48807816 -116.64446514 67.48807816 -120.375 64.3125 C-120.25455322 63.65838135 -120.13410645 63.0042627 -120.01000977 62.33032227 C-119.09204939 57.31718698 -118.1950522 52.3015913 -117.33984375 47.27734375 C-117.17033203 46.28412109 -117.00082031 45.29089844 -116.82617188 44.26757812 C-116.47779779 42.22104594 -116.13151087 40.17415758 -115.78710938 38.12695312 C-115.61888672 37.14533203 -115.45066406 36.16371094 -115.27734375 35.15234375 C-115.12773193 34.26925537 -114.97812012 33.38616699 -114.82397461 32.47631836 C-114.375 30.3125 -114.375 30.3125 -113.375 28.3125 C-89.84456169 18.37006128 -63.72169841 22.43982673 -40.40234375 30.578125 C-36.59839821 31.50088856 -33.28352324 31.43030264 -29.375 31.3125 C-28.87871094 30.2503125 -28.38242187 29.188125 -27.87109375 28.09375 C-22.4273218 16.67708172 -14.37418324 0.3660985 0 0 Z M18.625 94.3125 C17.05823641 95.87926359 17.16522239 97.71581154 16.8125 99.875 C14.91979494 109.46107453 10.30464414 115.30860129 3.625 122.3125 C5.98453094 124.67203094 7.40395617 124.80391413 10.625 125.3125 C14.15990729 119.6378373 16.3580641 113.90192191 18.4375 107.5625 C18.92379883 106.14517578 18.92379883 106.14517578 19.41992188 104.69921875 C19.72091797 103.79300781 20.02191406 102.88679687 20.33203125 101.953125 C20.6050708 101.13360352 20.87811035 100.31408203 21.15942383 99.46972656 C21.85250156 97.14625636 21.85250156 97.14625636 20.625 94.3125 C19.965 94.3125 19.305 94.3125 18.625 94.3125 Z M-136.6875 190.125 C-149.50731192 196.64302486 -162.40998808 197.79992966 -176.1875 193.75 C-177.569375 193.275625 -178.95125 192.80125 -180.375 192.3125 C-179.385 196.2725 -178.395 200.2325 -177.375 204.3125 C-158.95793311 205.55131616 -143.32510507 200.17855841 -127.375 191.3125 C-127.87 189.3325 -127.87 189.3325 -128.375 187.3125 C-132.00937207 187.3125 -133.5261594 188.36679839 -136.6875 190.125 Z " fill="#FDFE01" transform="translate(348.375,410.6875)"/>
<path d="M0 0 C4.77022928 4.11226662 6.71129221 8.52536181 7.4375 14.75 C7.21262772 20.80971624 4.71249709 26.8904658 1.8125 32.15625 C0.70422521 34.120135 0.70422521 34.120135 1.875 36.75 C2.24625 37.4925 2.6175 38.235 3 39 C3.37125 38.34 3.7425 37.68 4.125 37 C6 35 6 35 9.0625 34.625 C12 35 12 35 14 37 C14.08254466 39.88906325 13.41247713 41.51674932 11.54296875 43.70703125 C9.73336442 45.51663558 7.8747614 47.25809571 6 49 C5.23300781 49.78375 4.46601563 50.5675 3.67578125 51.375 C-10.48100145 65.26311383 -24.13174892 71.2732936 -43.96972656 71.39379883 C-52.88048685 71.28364219 -62.59961944 70.22150331 -69.87890625 64.53125 C-71.63465949 62.13314802 -71.19127077 59.8690616 -71 57 C-65.25 56 -65.25 56 -63 56 C-65.05395558 42.81570258 -65.05395558 42.81570258 -71.671875 31.5703125 C-75.69521789 26.8133012 -75.23274734 20.33822645 -75.265625 14.453125 C-75 12 -75 12 -73 9 C-72.26652344 9.32484375 -71.53304687 9.6496875 -70.77734375 9.984375 C-65.36191454 11.44043663 -60.1444342 11.28887592 -54.5625 11.25 C-52.90250977 11.26160156 -52.90250977 11.26160156 -51.20898438 11.2734375 C-45.40271579 11.25955521 -40.54974415 10.85889489 -35 9 C-31.64329119 8.28225056 -28.25547939 7.72693685 -24.87304688 7.14453125 C-20.76204129 6.40999999 -16.93791026 5.3768917 -13 4 C-11.46523546 3.59768308 -9.92370845 3.21976549 -8.375 2.875 C-7.64023438 2.70742188 -6.90546875 2.53984375 -6.1484375 2.3671875 C-4 2 -4 2 0 2 C0 1.34 0 0.68 0 0 Z M-13.3125 43.8125 C-26.13231192 50.33052486 -39.03498808 51.48742966 -52.8125 47.4375 C-54.194375 46.963125 -55.57625 46.48875 -57 46 C-56.01 49.96 -55.02 53.92 -54 58 C-35.58293311 59.23881616 -19.95010507 53.86605841 -4 45 C-4.495 43.02 -4.495 43.02 -5 41 C-8.63437207 41 -10.1511594 42.05429839 -13.3125 43.8125 Z " fill="#676C6E" transform="translate(225,557)"/>
<path d="M0 0 C0 0.33 0 0.66 0 1 C-0.99 1.20625 -1.98 1.4125 -3 1.625 C-11.84249844 4.20480337 -19.64413696 12.14320616 -24.12890625 19.97021484 C-26.57706571 24.57296209 -28.81642078 29.26697588 -31 34 C-37.54489273 34.34765019 -42.68088685 33.16440938 -48.875 31.125 C-60.34896857 27.41857121 -70.63869393 25.61194199 -82.75 25.625 C-83.98685547 25.62371094 -85.22371094 25.62242187 -86.49804688 25.62109375 C-94.38149862 25.71252018 -101.10513204 26.36891498 -108.53125 29.125 C-111 30 -111 30 -115 30 C-114.85691406 28.72253906 -114.71382812 27.44507813 -114.56640625 26.12890625 C-114.00398437 21.0671093 -113.46799331 16.00272874 -112.9375 10.9375 C-112.84662109 10.07189453 -112.75574219 9.20628906 -112.66210938 8.31445312 C-112.44116432 6.2096608 -112.22054721 4.10483405 -112 2 C-110.865625 1.505 -109.73125 1.01 -108.5625 0.5 C-103.72368614 -1.6523044 -98.92162111 -3.88065819 -94.125 -6.125 C-93.37549072 -6.47369141 -92.62598145 -6.82238281 -91.85375977 -7.18164062 C-91.14147217 -7.51615234 -90.42918457 -7.85066406 -89.6953125 -8.1953125 C-89.05609863 -8.49453613 -88.41688477 -8.79375977 -87.75830078 -9.10205078 C-85.73861312 -10.0907838 -85.73861312 -10.0907838 -83 -12 C-81.05264146 -12.3576781 -79.09087612 -12.63947939 -77.125 -12.875 C-72.3617441 -13.52909051 -68.09963496 -14.54396156 -63.5625 -16.125 C-40.91483252 -23.27689499 -19.72180784 -9.87767824 0 0 Z " fill="#02FEFC" transform="translate(350,409)"/>
<path d="M0 0 C7.49342761 2.89350175 12.27221472 6.35179761 17.8046875 12.05859375 C20.37921616 14.56086828 23.00173164 16.68367653 25.88671875 18.81640625 C27.44326172 19.97076172 27.44326172 19.97076172 29.03125 21.1484375 C31.42848184 22.89947734 33.84533246 24.62018428 36.2734375 26.328125 C36.90644775 26.77454346 37.53945801 27.22096191 38.19165039 27.6809082 C39.42544596 28.5479732 40.66280829 29.40998984 41.90405273 30.26635742 C44.71869483 32.23994377 46.51741973 33.73120772 48.44921875 36.62890625 C50.76901256 37.65992572 53.1035179 38.65827142 55.44921875 39.62890625 C58.32549687 41.27468931 59.28104221 42.08343233 60.27050781 45.29272461 C60.41713867 46.34081299 60.56376953 47.38890137 60.71484375 48.46875 C60.88242188 49.61408203 61.05 50.75941406 61.22265625 51.93945312 C61.37992187 53.13634766 61.5371875 54.33324219 61.69921875 55.56640625 C61.87195313 56.75943359 62.0446875 57.95246094 62.22265625 59.18164062 C62.86455141 63.71311481 63.44921875 68.04660561 63.44921875 72.62890625 C49.57094821 72.14194939 35.36647049 65.01384419 25.19921875 55.75390625 C21.91412206 53.21542244 19.54251519 52.87450404 15.44921875 52.62890625 C14.95421875 53.61890625 14.95421875 53.61890625 14.44921875 54.62890625 C12.79930293 55.33601303 11.12844255 55.99453281 9.44921875 56.62890625 C8.47984375 57.14453125 7.51046875 57.66015625 6.51171875 58.19140625 C0.30250243 61.10593636 -7.31009753 61.83560487 -13.953125 59.9453125 C-19.91033881 57.55647967 -23.63539762 54.45967351 -26.55078125 48.62890625 C-26.95223073 42.39243526 -27.13208025 36.43682901 -24.55078125 30.62890625 C-25.21078125 30.29890625 -25.87078125 29.96890625 -26.55078125 29.62890625 C-27.07023108 23.56865821 -24.22249808 20.32649941 -20.48828125 15.87890625 C-16.20274819 11.07363833 -11.45446235 6.79333894 -6.55078125 2.62890625 C-5.90109375 2.01789063 -5.25140625 1.406875 -4.58203125 0.77734375 C-2.55078125 -0.37109375 -2.55078125 -0.37109375 0 0 Z " fill="#02FEFB" transform="translate(108.55078125,368.37109375)"/>
<path d="M0 0 C4.02545534 0.28084572 5.74482626 0.78365704 8.875 3.4375 C11 6 11 6 11 8 C11.99 8.33 12.98 8.66 14 9 C15.75390625 10.92578125 15.75390625 10.92578125 17.5625 13.3125 C18.16191406 14.09238281 18.76132812 14.87226563 19.37890625 15.67578125 C21 18 21 18 22.02734375 20.16796875 C22.99414639 22.33899781 22.99414639 22.33899781 26 24 C25.97679687 22.94039063 25.95359375 21.88078125 25.9296875 20.7890625 C25.91093056 19.4010487 25.89273028 18.0130273 25.875 16.625 C25.85824219 15.92632812 25.84148437 15.22765625 25.82421875 14.5078125 C25.80655733 12.67102514 25.89696739 10.83398037 26 9 C28 7 28 7 30.453125 6.94921875 C33 8 33 8 34.546875 11.01953125 C35.14242187 12.89705078 35.14242187 12.89705078 35.75 14.8125 C36.15734375 16.05644531 36.5646875 17.30039062 36.984375 18.58203125 C37.48710937 20.27392578 37.48710937 20.27392578 38 22 C38.309375 23.02287109 38.309375 23.02287109 38.625 24.06640625 C41.20003687 37.34394013 37.0197046 48.92376182 30 60 C25.77559153 65.90367644 21.04181222 71.20326005 15.81640625 76.234375 C14.68464169 77.33449883 13.5816529 78.46606309 12.52734375 79.640625 C11.25 81.0625 11.25 81.0625 9 83 C6.68983403 82.87165745 5.63394255 82.63394255 4 81 C3.65770712 77.83379087 3.74367901 76.39516153 5.5 73.6875 C5.995 73.130625 6.49 72.57375 7 72 C6.6304863 69.90689384 6.6304863 69.90689384 5 68 C2.09266896 67.51748077 -0.5733074 67.26436631 -3.5 67.125 C-10.54967063 66.58271764 -17.02798821 65.46475872 -23.75 63.25 C-24.47509766 63.02199707 -25.20019531 62.79399414 -25.94726562 62.55908203 C-30.98716234 60.80449473 -35.66025606 58.27518757 -39 54 C-39 52.68 -39 51.36 -39 50 C-38.154375 49.79246094 -37.30875 49.58492187 -36.4375 49.37109375 C-23.89422028 45.96445301 -18.94636482 41.0792826 -12.625 30.0625 C-12.19550049 29.27979736 -11.76600098 28.49709473 -11.32348633 27.69067383 C-10.92025146 26.95872803 -10.5170166 26.22678223 -10.1015625 25.47265625 C-9.74400879 24.80500244 -9.38645508 24.13734863 -9.01806641 23.44946289 C-8.68210449 22.97114014 -8.34614258 22.49281738 -8 22 C-7.34 22 -6.68 22 -6 22 C-5.9071875 20.7625 -5.9071875 20.7625 -5.8125 19.5 C-5.0546237 16.23530209 -4.30767956 14.70891461 -2.5 12 C-0.29566503 8.67438482 0.80625914 6.06855813 1 2 C0.505 1.01 0.505 1.01 0 0 Z M23 32 C21.43323641 33.56676359 21.54022239 35.40331154 21.1875 37.5625 C19.29479494 47.14857453 14.67964414 52.99610129 8 60 C10.35953094 62.35953094 11.77895617 62.49141413 15 63 C18.53490729 57.3253373 20.7330641 51.58942191 22.8125 45.25 C23.29879883 43.83267578 23.29879883 43.83267578 23.79492188 42.38671875 C24.09591797 41.48050781 24.39691406 40.57429687 24.70703125 39.640625 C24.9800708 38.82110352 25.25311035 38.00158203 25.53442383 37.15722656 C26.22750156 34.83375636 26.22750156 34.83375636 25 32 C24.34 32 23.68 32 23 32 Z " fill="#676C6E" transform="translate(344,473)"/>
<path d="M0 0 C0.66 0.99 1.32 1.98 2 3 C3.134375 3.61875 4.26875 4.2375 5.4375 4.875 C10.61308278 7.75746743 11.95491012 11.49882754 13.6875 17 C15.4220704 23.86407536 16.61948477 31.44666602 14.19140625 38.2734375 C11.53026853 42.63807168 8.05610487 44.20796751 3.28125 45.6875 C0.52543243 46.06500926 -1.34646544 45.83907915 -4 45 C-10.66057123 39.7492257 -16.03575217 30.55628051 -17.4765625 22.25390625 C-17.65529528 16.91629544 -16.79311039 12.62608908 -14 8 C-9.84196932 3.67738061 -6.28228173 0 0 0 Z " fill="#030300" transform="translate(17,230)"/>
<path d="M0 0 C11.10157877 1.33910094 24.36169223 4.52314538 33 12 C35.30659237 15.35769776 36.03581509 19.09206469 37 23 C31.6144173 27.6665267 27.11979283 30.22108249 20 31 C18.88431641 31.12375 18.88431641 31.12375 17.74609375 31.25 C11.82749942 31.57938264 7.00636053 30.1823377 2 27 C-1.20860758 24.00529959 -3.8251364 20.88910017 -4.23828125 16.42578125 C-4.39991953 9.64548083 -4.01933996 5.52659245 0 0 Z " fill="#F9FD04" transform="translate(86,398)"/>
<path d="M0 0 C14.68370272 -1.11994343 27.62648915 2.67135514 39 12 C44.77574318 17.16727753 49.51979567 22.015274 52.0625 29.4375 C53.47545444 33.52038879 53.47545444 33.52038879 55.11328125 37.515625 C56.10006829 40.28036756 56.2029537 42.38923638 56.125 45.3125 C56.10695313 46.19550781 56.08890625 47.07851562 56.0703125 47.98828125 C56.04710937 48.65214844 56.02390625 49.31601563 56 50 C51.78597709 48.5953257 50.51095988 45.53282497 48.25 41.9375 C38.88384639 27.55080388 27.95346201 19.42206481 13 11 C11.75 10.25 10.5 9.5 9.25 8.75 C5.57086804 6.76892894 1.93973054 5.38236159 -2 4 C-1.34 2.68 -0.68 1.36 0 0 Z " fill="#F3CB00" transform="translate(324,26)"/>
<path d="M0 0 C3.58902455 0.70029747 5.14984936 2.20547908 7.390625 5.046875 C10.50256863 11.56121033 9.31923837 19.90553776 7.25 26.625 C6.72007381 27.93036863 6.16210682 29.22513503 5.5625 30.5 C5.170625 31.345625 4.77875 32.19125 4.375 33.0625 C1.90461123 35.02177385 -0.34963266 35.11550187 -3.44140625 34.9453125 C-6.92842608 34.16738635 -8.35400229 32.29783979 -10.4375 29.5 C-13.96361013 23.29890977 -14.57318113 17.0736274 -12.86328125 10.1875 C-11.61940557 6.60724408 -10.31079292 3.95866584 -7.4375 1.5 C-4.96752898 0.78500839 -2.51573867 0.51604896 0 0 Z " fill="#0F0F00" transform="translate(133.4375,180.5)"/>
<path d="M0 0 C4.55555556 0.55555556 4.55555556 0.55555556 6 2 C6.63605886 10.10975043 5.61635847 21.11624284 1 28 C-2.3125 29.125 -2.3125 29.125 -6 29 C-9.87859082 25.78159485 -10.83307048 24.25197139 -11.5 19.25 C-11.11735541 13.73354047 -10.24597368 7.02933449 -6.015625 3.20703125 C-4 2 -4 2 -2 2 C-1.34 1.34 -0.68 0.68 0 0 Z " fill="#0A0A00" transform="translate(49,159)"/>
<path d="M0 0 C3.9790243 -0.08802152 7.95779388 -0.14073233 11.9375 -0.1875 C13.05447266 -0.21263672 14.17144531 -0.23777344 15.32226562 -0.26367188 C25.62947459 -0.35435113 32.97834539 1.84238726 41.5625 7.4375 C42.18962891 7.81970703 42.81675781 8.20191406 43.46289062 8.59570312 C45.25390625 9.74609375 45.25390625 9.74609375 48 12 C48 13.32 48 14.64 48 16 C43.10575066 15.28842474 39.96104478 13.25247653 35.890625 10.5703125 C28.08319446 6.32897861 20.73260206 5.50671361 11.9375 5.3125 C10.88111328 5.27833984 9.82472656 5.24417969 8.73632812 5.20898438 C6.15765843 5.12730705 3.57929438 5.05790057 1 5 C0.67 3.35 0.34 1.7 0 0 Z " fill="#5C4D18" transform="translate(140,93)"/>
<path d="M0 0 C0.495 2.475 0.495 2.475 1 5 C0.30777344 5.07476563 -0.38445312 5.14953125 -1.09765625 5.2265625 C-8.1900468 6.17969008 -14.26180724 8.04861187 -20.74633789 10.96728516 C-24.67259029 12.68366227 -27.72299986 13.30082876 -32 13 C-31.48899007 8.43904572 -31.48899007 8.43904572 -29.35546875 6.5234375 C-19.96558024 1.5493344 -10.61842988 -0.63428674 0 0 Z " fill="#F4CE00" transform="translate(190,10)"/>
<path d="M0 0 C4.33995881 0.50076448 6.78092895 3.25037681 10 6 C13.59934525 8.3266038 17.02860765 8.3904782 21.25 8.625 C22.51328125 8.69976562 23.7765625 8.77453125 25.078125 8.8515625 C26.04234375 8.90054687 27.0065625 8.94953125 28 9 C28.5625 10.9375 28.5625 10.9375 29 13 C27.19142312 14.80857688 24.63564081 14.34166531 22.1875 14.4375 C14.77972562 14.39666332 9.07133564 12.20174975 3 8 C0.16462475 4.98364335 0 4.3426654 0 0 Z " fill="#F4D000" transform="translate(84,412)"/>
<path d="M0 0 C1.32 0 2.64 0 4 0 C3.18598354 5.98354955 0.02952876 9.67013369 -4 14 C-8.83845659 17.47106669 -13.26638247 17.34401705 -19 17 C-19.5625 15.0625 -19.5625 15.0625 -20 13 C-18.40035599 11.40035599 -16.44279514 11.45499735 -14.25 11.0625 C-8.91907908 10.12140229 -8.91907908 10.12140229 -4 8 C-2.75285597 5.59047977 -2.75285597 5.59047977 -2 3 C-1.34 2.01 -0.68 1.02 0 0 Z " fill="#F4D000" transform="translate(357,438)"/>
<path d="M0 0 C0 0.99 0 1.98 0 3 C-1.57587891 3.18175781 -1.57587891 3.18175781 -3.18359375 3.3671875 C-10.56126606 4.24021206 -17.7800756 5.1950189 -25 7 C-26.31286211 2.58400927 -26.31286211 2.58400927 -25.0625 0.25 C-18.78203018 -3.55634535 -6.3959794 -3.41118901 0 0 Z " fill="#5B4C18" transform="translate(88,87)"/>
<path d="M0 0 C0 1.32 0 2.64 0 4 C-1.89295141 5.74413448 -3.65755698 7.16515603 -5.75 8.625 C-7.35101563 9.78902344 -7.35101563 9.78902344 -8.984375 10.9765625 C-13.17895052 13.79105747 -15.65598393 15.274824 -20.75 15.125 C-21.54921875 15.10695313 -22.3484375 15.08890625 -23.171875 15.0703125 C-23.77515625 15.04710937 -24.3784375 15.02390625 -25 15 C-25 13.68 -25 12.36 -25 11 C-23.700625 10.79375 -22.40125 10.5875 -21.0625 10.375 C-15.05968253 9.05684577 -9.60529107 5.92251563 -5.4921875 1.30859375 C-4 0 -4 0 0 0 Z " fill="#C9CCC6" transform="translate(357,520)"/>
<path d="M0 0 C2.3125 0.25 2.3125 0.25 5 1 C5.4125 1.639375 5.825 2.27875 6.25 2.9375 C8.71989789 5.84845109 10.99328016 6.01847132 14.6875 6.75 C16.45673828 7.11351562 16.45673828 7.11351562 18.26171875 7.484375 C19.16535156 7.65453125 20.06898438 7.8246875 21 8 C20.67 9.65 20.34 11.3 20 13 C12.52285964 13.62309503 7.71295017 11.26079181 2 6.5 C0 4 0 4 0 0 Z " fill="#BFC3BE" transform="translate(158,586)"/>
<path d="M0 0 C3.46405917 1.25091025 6.25359963 2.52452592 9 5 C9.74536133 7.11303711 9.74536133 7.11303711 10.08203125 9.52734375 C10.20900391 10.40197266 10.33597656 11.27660156 10.46679688 12.17773438 C10.63791992 13.54381836 10.63791992 13.54381836 10.8125 14.9375 C10.94591797 15.84435547 11.07933594 16.75121094 11.21679688 17.68554688 C12.22584719 25.01869862 12.22584719 25.01869862 11 29 C8.43913601 22.43082715 7.57772994 16.67147486 7.30859375 9.625 C7.20675781 8.75875 7.10492188 7.8925 7 7 C6.34 6.67 5.68 6.34 5 6 C5 5.34 5 4.68 5 4 C4.01 4 3.02 4 2 4 C1.34 2.68 0.68 1.36 0 0 Z " fill="#1FD1D1" transform="translate(159,406)"/>
<path d="M0 0 C1.32 0 2.64 0 4 0 C4.48828125 2.01822917 4.9765625 4.03645833 5.46484375 6.0546875 C5.94846992 8.0585657 5.94846992 8.0585657 7 10 C6.72057545 11.67654729 6.39171753 13.34608154 6 15 C5.67 15 5.34 15 5 15 C4.7525 14.113125 4.505 13.22625 4.25 12.3125 C3.17669721 8.92049214 3.17669721 8.92049214 0.8125 6.375 C-1 4 -1 4 -0.75 1.6875 C-0.5025 1.130625 -0.255 0.57375 0 0 Z " fill="#EDEE0C" transform="translate(202,476)"/>
<path d="M0 0 C6.93 0.33 13.86 0.66 21 1 C20.67 1.66 20.34 2.32 20 3 C17.79194476 3.0544452 15.58349446 3.09299283 13.375 3.125 C12.14523437 3.14820313 10.91546875 3.17140625 9.6484375 3.1953125 C6.05683959 3.0030428 3.33338825 2.30258556 0 1 C0 0.67 0 0.34 0 0 Z " fill="#D7D81C" transform="translate(313,345)"/>
<path d="M0 0 C-1.46966358 3.39859703 -3.38037514 5.64963709 -6 8.25 C-6.70125 8.95640625 -7.4025 9.6628125 -8.125 10.390625 C-10 12 -10 12 -12 12 C-10.53033642 8.60140297 -8.61962486 6.35036291 -6 3.75 C-5.29875 3.04359375 -4.5975 2.3371875 -3.875 1.609375 C-2 0 -2 0 0 0 Z " fill="#D6FF28" transform="translate(340,414)"/>
<path d="M0 0 C-3.01490557 2.00993705 -5.2149927 2.72623341 -8.6875 3.625 C-10.17830078 4.01558594 -10.17830078 4.01558594 -11.69921875 4.4140625 C-12.45847656 4.60742188 -13.21773438 4.80078125 -14 5 C-13.20703125 3.046875 -13.20703125 3.046875 -12 1 C-7.98287242 0.09046168 -4.10897143 -0.12451429 0 0 Z " fill="#D3D51F" transform="translate(278,351)"/>
</svg>
