<?xml version="1.0" encoding="UTF-8"?>
<svg xmlns="http://www.w3.org/2000/svg" xmlns:xlink="http://www.w3.org/1999/xlink" width="628px" height="628px" viewBox="0 0 628 628" version="1.1">
<g id="surface1">
<path style=" stroke:none;fill-rule:nonzero;fill:rgb(99.607843%,99.607843%,0%);fill-opacity:1;" d="M 218.128906 1.117188 C 220.519531 2.320312 222.785156 3.5625 225.003906 5 C 225.003906 5.660156 225.003906 6.320312 225.003906 7 C 226.113281 7.328125 227.222656 7.660156 228.363281 8 C 228.734375 8.660156 229.101562 9.320312 229.484375 10 C 236.367188 9.363281 243.160156 8.515625 249.984375 7.5 C 258.0625 6.335938 266.074219 5.355469 274.261719 5 C 275.160156 4.945312 276.058594 4.894531 276.984375 4.839844 C 288.089844 4.484375 299.171875 6.332031 310.082031 8 C 310.957031 8.132812 311.835938 8.269531 312.738281 8.40625 C 322.222656 9.933594 329.648438 12.082031 337.859375 16.625 C 341.894531 18.804688 344.640625 20.253906 349.464844 19.285156 C 352.867188 17.722656 352.867188 17.722656 356.113281 15.816406 C 368.226562 8.988281 384.886719 9.863281 398.515625 12 C 413.117188 15.160156 429.757812 22.257812 438.117188 33.75 C 446.074219 46.859375 446.265625 61.71875 442.175781 76 C 441.144531 78.429688 440.011719 80.742188 438.707031 83.0625 C 437.074219 86.195312 436.257812 88.046875 437.402344 91.460938 C 437.855469 92.375 438.304688 93.292969 438.769531 94.234375 C 439.519531 95.789062 439.519531 95.789062 440.289062 97.375 C 440.84375 98.488281 441.394531 99.601562 441.964844 100.75 C 443.109375 103.109375 444.25 105.46875 445.394531 107.828125 C 445.976562 109.023438 446.5625 110.222656 447.164062 111.453125 C 467.867188 153.945312 467.867188 153.945312 469.039062 174 C 469.085938 174.730469 469.128906 175.464844 469.171875 176.21875 C 471.445312 222.789062 441.863281 265.230469 414.605469 302.875 C 413.132812 304.914062 411.675781 306.964844 410.21875 309.015625 C 400.882812 322.019531 389.710938 333.3125 377.246094 344 C 378.21875 344.613281 378.21875 344.613281 379.207031 345.242188 C 380.453125 346.050781 380.453125 346.050781 381.726562 346.875 C 382.558594 347.410156 383.386719 347.941406 384.246094 348.492188 C 384.890625 348.988281 385.539062 349.488281 386.203125 350 C 386.203125 350.660156 386.203125 351.320312 386.203125 352 C 391.03125 350.007812 394.886719 347.757812 398.9375 344.6875 C 400.011719 343.886719 401.089844 343.085938 402.199219 342.261719 C 403.199219 341.515625 404.203125 340.769531 405.234375 340 C 418.746094 330.117188 436.667969 318.886719 454.890625 320.1875 C 457.570312 320.527344 460.222656 320.933594 462.882812 321.375 C 474.847656 323.679688 474.847656 323.679688 486.882812 323.4375 C 490.421875 322.984375 491.917969 323.339844 495.277344 324.1875 C 507.449219 326.574219 521.726562 320.066406 533.097656 316.367188 C 533.828125 316.132812 534.558594 315.898438 535.3125 315.65625 C 537.015625 315.101562 538.707031 314.527344 540.398438 313.945312 C 544.726562 312.824219 549.027344 312.214844 553.476562 311.585938 C 557.992188 310.925781 562.488281 310.179688 566.980469 309.414062 C 568.246094 309.199219 568.246094 309.199219 569.535156 308.980469 C 571.285156 308.683594 573.039062 308.382812 574.789062 308.085938 C 579.367188 307.304688 583.945312 306.527344 588.527344 305.753906 C 589.425781 305.601562 590.320312 305.449219 591.246094 305.292969 C 598.667969 304.039062 606.089844 302.785156 613.515625 301.5625 C 614.492188 301.398438 615.46875 301.234375 616.476562 301.066406 C 620.40625 300.425781 623.988281 300 628 300 C 628 328.050781 628 356.101562 628 385 C 616.917969 385.660156 605.835938 386.320312 594.417969 387 C 587.65625 387.777344 587.65625 387.777344 580.910156 388.621094 C 570.875 389.777344 560.648438 388.824219 550.578125 388.355469 C 545.027344 388.101562 539.527344 387.972656 533.96875 388.0625 C 527.894531 388.125 522.210938 387.363281 516.234375 386.449219 C 506.996094 385.199219 506.996094 385.199219 498.144531 387 C 495.863281 387.117188 493.582031 387.234375 491.296875 387.339844 C 478.289062 388.082031 469.671875 391.625 458.964844 398 C 457.316406 398.957031 455.667969 399.910156 454.015625 400.863281 C 451.539062 402.296875 449.066406 403.730469 446.601562 405.171875 C 432.117188 413.621094 420.3125 416.8125 402.996094 416 C 402.253906 415.671875 401.515625 415.339844 400.753906 415 C 401.226562 415.964844 401.699219 416.929688 402.1875 417.921875 C 402.804688 419.199219 403.425781 420.472656 404.042969 421.75 C 404.355469 422.382812 404.667969 423.019531 404.988281 423.671875 C 408.457031 430.847656 409.875 436.910156 407.472656 444.5625 C 403.8125 450.179688 398.9375 454.710938 391.730469 456.4375 C 384.402344 457.507812 376.808594 457.15625 369.410156 457 C 372.320312 462.410156 375.292969 465.335938 380.824219 468.738281 C 382.84375 470 382.84375 470 385.082031 472 C 386.121094 472.269531 387.160156 472.535156 388.230469 472.8125 C 392.433594 474.210938 394.515625 475.96875 397.398438 479 C 397.398438 479.660156 397.398438 480.320312 397.398438 481 C 398.503906 481.328125 399.613281 481.660156 400.753906 482 C 402.71875 483.925781 402.71875 483.925781 404.742188 486.3125 C 405.414062 487.09375 406.085938 487.871094 406.777344 488.675781 C 408.59375 491 408.59375 491 409.742188 493.167969 C 410.824219 495.339844 410.824219 495.339844 414.1875 497 C 414.164062 495.941406 414.136719 494.878906 414.109375 493.789062 C 414.089844 492.402344 414.070312 491.011719 414.050781 489.625 C 414.03125 488.925781 414.011719 488.226562 413.992188 487.507812 C 413.972656 485.671875 414.074219 483.832031 414.1875 482 C 416.429688 480 416.429688 480 419.175781 479.949219 C 422.023438 481 422.023438 481 423.757812 484.019531 C 424.199219 485.269531 424.644531 486.523438 425.101562 487.8125 C 425.789062 489.679688 425.789062 489.679688 426.484375 491.582031 C 426.859375 492.710938 427.234375 493.835938 427.621094 495 C 427.96875 496.023438 427.96875 496.023438 428.320312 497.066406 C 431.203125 510.34375 426.523438 521.921875 418.667969 533 C 413.9375 538.902344 408.636719 544.203125 402.789062 549.234375 C 401.523438 550.335938 400.289062 551.464844 399.105469 552.640625 C 397.675781 554.0625 397.675781 554.0625 395.160156 556 C 392.574219 555.871094 391.390625 555.632812 389.5625 554 C 389.179688 550.832031 389.273438 549.394531 391.242188 546.6875 C 392.070312 545.851562 392.070312 545.851562 392.917969 545 C 392.507812 542.90625 392.507812 542.90625 390.679688 541 C 387.425781 540.515625 384.441406 540.265625 381.164062 540.125 C 373.273438 539.582031 366.023438 538.464844 358.496094 536.25 C 357.6875 536.023438 356.875 535.792969 356.039062 535.558594 C 350.394531 533.804688 345.164062 531.273438 341.425781 527 C 341.425781 525.679688 341.425781 524.359375 341.425781 523 C 339.621094 521.5625 339.621094 521.5625 337.226562 520.5 C 333.550781 518.699219 330.871094 516.734375 327.992188 514 C 327.578125 514.417969 327.160156 514.835938 326.730469 515.265625 C 310.792969 531.167969 293.175781 543.539062 268.351562 545.167969 C 263.21875 545.324219 258.117188 545.21875 252.992188 545 C 253.144531 552.988281 254.15625 558.75 258.484375 565.742188 C 260.992188 570.367188 260.34375 574.101562 258.765625 578.800781 C 257.367188 582.367188 255.945312 585.839844 253.902344 589.15625 C 252.660156 591.121094 252.660156 591.121094 253.96875 593.75 C 254.386719 594.492188 254.800781 595.234375 255.230469 596 C 255.644531 595.339844 256.0625 594.679688 256.488281 594 C 258.589844 592 258.589844 592 262.015625 591.625 C 265.304688 592 265.304688 592 267.542969 594 C 267.636719 596.890625 266.886719 598.515625 264.792969 600.707031 C 262.765625 602.515625 260.6875 604.257812 258.589844 606 C 257.730469 606.785156 256.871094 607.566406 255.988281 608.375 C 240.140625 622.261719 224.859375 628.273438 202.652344 628.394531 C 192.675781 628.285156 181.796875 627.222656 173.648438 621.53125 C 171.683594 619.132812 172.179688 616.867188 172.390625 614 C 178.828125 613 178.828125 613 181.347656 613 C 179.046875 599.816406 179.046875 599.816406 171.640625 588.570312 C 167.136719 583.8125 167.652344 577.339844 167.617188 571.453125 C 167.914062 569 167.914062 569 170.152344 566 C 170.890625 566 171.632812 566 172.390625 566 C 172.234375 565.464844 172.074219 564.929688 171.910156 564.378906 C 169.953125 556.9375 169.847656 549.617188 169.921875 542.011719 C 169.945312 539.871094 169.945312 537.730469 169.945312 535.589844 C 169.964844 528.976562 170.179688 522.542969 171.273438 516 C 172.765625 505.035156 172.765625 505.035156 169.25 494.761719 C 166.855469 492.289062 164.371094 489.949219 161.789062 487.636719 C 142.164062 468.863281 136.820312 446.878906 137.691406 422 C 137.160156 422.335938 136.628906 422.675781 136.085938 423.023438 C 127.78125 428.027344 118.625 430.238281 108.585938 429 C 101.429688 427.160156 97.140625 424.425781 92.914062 419 C 90.09375 413.960938 91.34375 406.507812 92.914062 401.25 C 93.28125 400.507812 93.652344 399.765625 94.03125 399 C 93.292969 398.671875 92.554688 398.339844 91.792969 398 C 91.210938 391.941406 94.398438 388.699219 98.578125 384.25 C 102.613281 380.203125 107.046875 376.632812 111.59375 373.054688 C 114.441406 370.792969 117.128906 368.445312 119.777344 366 C 113.089844 352.820312 93.726562 342.648438 79.6875 336.625 C 68.871094 331.929688 59.015625 325.628906 49.324219 319.3125 C 48.652344 318.875 47.976562 318.433594 47.28125 317.980469 C 32.5625 308.25 24.035156 297.945312 20.753906 281.398438 C 20.492188 279.605469 20.308594 277.804688 20.148438 276 C 19.304688 275.902344 18.460938 275.804688 17.589844 275.707031 C 11.285156 274.238281 8.023438 268.867188 4.722656 264.152344 C -0.195312 256.125 -1.5625 250.148438 1.121094 241.3125 C 4.785156 235.890625 9.277344 231.726562 16.230469 230.0625 C 17.617188 230.03125 17.617188 230.03125 19.03125 230 C 19.300781 229.128906 19.574219 228.257812 19.851562 227.359375 C 21.402344 223.683594 23.25 221.289062 26.027344 218.25 C 26.738281 217.46875 26.738281 217.46875 27.46875 216.671875 C 30.871094 213.136719 34.421875 210.734375 38.855469 208.304688 C 45.671875 204.640625 45.671875 204.640625 49.328125 198.476562 C 49.519531 193.265625 49.472656 188.589844 45.335938 184.625 C 44.414062 183.757812 43.488281 182.890625 42.539062 182 C 41.609375 175.785156 42.980469 169.714844 45.898438 164 C 46.636719 163.410156 47.375 162.824219 48.136719 162.21875 C 50.90625 159.476562 51.121094 157.863281 51.554688 154.222656 C 51.707031 153.078125 51.859375 151.9375 52.019531 150.757812 C 52.167969 149.539062 52.320312 148.320312 52.472656 147.0625 C 54.832031 130.429688 59.0625 114.957031 66.941406 99.714844 C 68.507812 96.554688 69.3125 93.863281 69.683594 90.4375 C 70.523438 88 70.523438 88 72.972656 86.75 C 76.285156 84.910156 77.242188 83.707031 79.269531 80.8125 C 82.726562 75.917969 86.789062 71.695312 91.792969 68 C 92.53125 68 93.269531 68 94.03125 68 C 94.308594 67.414062 94.585938 66.828125 94.871094 66.222656 C 102.890625 53.488281 127.511719 44.742188 141.558594 38.613281 C 147.835938 35.789062 152.726562 32.285156 157.839844 28 C 158.792969 27.242188 159.746094 26.480469 160.730469 25.699219 C 161.964844 24.703125 161.964844 24.703125 163.226562 23.6875 C 164.175781 22.929688 165.121094 22.171875 166.101562 21.390625 C 168.074219 19.78125 170.015625 18.148438 171.933594 16.484375 C 183.828125 6.3125 200.828125 -4.929688 218.128906 1.117188 Z M 410.832031 505 C 409.078125 506.566406 409.195312 508.402344 408.800781 510.5625 C 406.683594 520.148438 401.515625 525.996094 394.039062 533 C 396.679688 535.359375 398.269531 535.492188 401.875 536 C 405.832031 530.324219 408.292969 524.589844 410.621094 518.25 C 411.164062 516.832031 411.164062 516.832031 411.71875 515.386719 C 412.058594 514.480469 412.394531 513.574219 412.742188 512.640625 C 413.046875 511.820312 413.351562 511 413.667969 510.15625 C 414.445312 507.832031 414.445312 507.832031 413.070312 505 C 412.332031 505 411.59375 505 410.832031 505 Z M 236.96875 600.8125 C 222.617188 607.332031 208.175781 608.488281 192.75 604.4375 C 191.203125 603.964844 189.65625 603.488281 188.0625 603 C 189.171875 606.960938 190.28125 610.921875 191.421875 615 C 212.039062 616.238281 229.539062 610.867188 247.394531 602 C 246.839844 600.019531 246.839844 600.019531 246.273438 598 C 242.207031 598 240.507812 599.054688 236.96875 600.8125 Z M 236.96875 600.8125 "/>
<path style=" stroke:none;fill-rule:nonzero;fill:rgb(39.607844%,41.568628%,43.137255%);fill-opacity:1;" d="M 628 300 C 628 328.050781 628 356.101562 628 385 C 616.917969 385.660156 605.835938 386.320312 594.417969 387 C 587.65625 387.777344 587.65625 387.777344 580.910156 388.621094 C 570.875 389.777344 560.648438 388.824219 550.578125 388.355469 C 545.027344 388.101562 539.527344 387.972656 533.96875 388.0625 C 527.894531 388.125 522.210938 387.363281 516.234375 386.449219 C 506.996094 385.199219 506.996094 385.199219 498.144531 387 C 495.863281 387.117188 493.582031 387.234375 491.296875 387.339844 C 478.289062 388.082031 469.671875 391.625 458.964844 398 C 457.316406 398.957031 455.667969 399.910156 454.015625 400.863281 C 451.539062 402.296875 449.066406 403.730469 446.601562 405.171875 C 432.117188 413.621094 420.3125 416.8125 402.996094 416 C 402.253906 415.671875 401.515625 415.339844 400.753906 415 C 401.226562 415.964844 401.699219 416.929688 402.1875 417.921875 C 402.804688 419.199219 403.425781 420.472656 404.042969 421.75 C 404.355469 422.382812 404.667969 423.019531 404.988281 423.671875 C 408.457031 430.847656 409.875 436.910156 407.472656 444.5625 C 403.8125 450.179688 398.9375 454.710938 391.730469 456.4375 C 384.402344 457.507812 376.808594 457.15625 369.410156 457 C 372.320312 462.410156 375.292969 465.335938 380.824219 468.738281 C 382.84375 470 382.84375 470 385.082031 472 C 386.121094 472.269531 387.160156 472.535156 388.230469 472.8125 C 392.433594 474.210938 394.515625 475.96875 397.398438 479 C 397.398438 479.660156 397.398438 480.320312 397.398438 481 C 398.503906 481.328125 399.613281 481.660156 400.753906 482 C 402.71875 483.925781 402.71875 483.925781 404.742188 486.3125 C 405.75 487.480469 405.75 487.480469 406.777344 488.675781 C 408.59375 491 408.59375 491 409.742188 493.167969 C 410.824219 495.339844 410.824219 495.339844 414.1875 497 C 414.148438 495.410156 414.148438 495.410156 414.109375 493.789062 C 414.089844 492.402344 414.070312 491.011719 414.050781 489.625 C 414.03125 488.925781 414.011719 488.226562 413.992188 487.507812 C 413.972656 485.671875 414.074219 483.832031 414.1875 482 C 416.429688 480 416.429688 480 419.175781 479.949219 C 422.023438 481 422.023438 481 423.757812 484.019531 C 424.421875 485.898438 424.421875 485.898438 425.101562 487.8125 C 425.789062 489.679688 425.789062 489.679688 426.484375 491.582031 C 426.859375 492.710938 427.234375 493.835938 427.621094 495 C 427.851562 495.683594 428.082031 496.363281 428.320312 497.066406 C 431.203125 510.34375 426.523438 521.921875 418.667969 533 C 413.9375 538.902344 408.636719 544.203125 402.789062 549.234375 C 401.523438 550.335938 400.289062 551.464844 399.105469 552.640625 C 397.675781 554.0625 397.675781 554.0625 395.160156 556 C 392.574219 555.871094 391.390625 555.632812 389.5625 554 C 389.179688 550.832031 389.273438 549.394531 391.242188 546.6875 C 391.792969 546.128906 392.347656 545.574219 392.917969 545 C 392.507812 542.90625 392.507812 542.90625 390.679688 541 C 387.425781 540.515625 384.441406 540.265625 381.164062 540.125 C 373.273438 539.582031 366.023438 538.464844 358.496094 536.25 C 357.28125 535.90625 357.28125 535.90625 356.039062 535.558594 C 350.394531 533.804688 345.164062 531.273438 341.425781 527 C 341.425781 525.679688 341.425781 524.359375 341.425781 523 C 339.621094 521.5625 339.621094 521.5625 337.226562 520.5 C 333.550781 518.699219 330.871094 516.734375 327.992188 514 C 327.578125 514.417969 327.160156 514.835938 326.730469 515.265625 C 310.792969 531.167969 293.175781 543.539062 268.351562 545.167969 C 263.21875 545.324219 258.117188 545.21875 252.992188 545 C 253.144531 552.988281 254.15625 558.75 258.484375 565.742188 C 260.992188 570.367188 260.34375 574.101562 258.765625 578.800781 C 257.367188 582.367188 255.945312 585.839844 253.902344 589.15625 C 252.660156 591.121094 252.660156 591.121094 253.96875 593.75 C 254.386719 594.492188 254.800781 595.234375 255.230469 596 C 255.644531 595.339844 256.0625 594.679688 256.488281 594 C 258.589844 592 258.589844 592 262.015625 591.625 C 265.304688 592 265.304688 592 267.542969 594 C 267.636719 596.890625 266.886719 598.515625 264.792969 600.707031 C 262.765625 602.515625 260.6875 604.257812 258.589844 606 C 257.730469 606.785156 256.871094 607.566406 255.988281 608.375 C 240.140625 622.261719 224.859375 628.273438 202.652344 628.394531 C 192.675781 628.285156 181.796875 627.222656 173.648438 621.53125 C 171.683594 619.132812 172.179688 616.867188 172.390625 614 C 178.828125 613 178.828125 613 181.347656 613 C 179.046875 599.816406 179.046875 599.816406 171.640625 588.570312 C 167.136719 583.8125 167.652344 577.339844 167.617188 571.453125 C 167.914062 569 167.914062 569 170.152344 566 C 170.890625 566 171.632812 566 172.390625 566 C 172.234375 565.464844 172.074219 564.929688 171.910156 564.378906 C 169.953125 556.9375 169.847656 549.617188 169.921875 542.011719 C 169.945312 539.871094 169.945312 537.730469 169.945312 535.589844 C 169.964844 528.976562 170.179688 522.542969 171.273438 516 C 172.765625 505.035156 172.765625 505.035156 169.25 494.761719 C 166.855469 492.289062 164.371094 489.949219 161.789062 487.636719 C 142.164062 468.863281 136.820312 446.878906 137.691406 422 C 137.160156 422.335938 136.628906 422.675781 136.085938 423.023438 C 127.78125 428.027344 118.625 430.238281 108.585938 429 C 101.429688 427.160156 97.140625 424.425781 92.914062 419 C 90.09375 413.960938 91.34375 406.507812 92.914062 401.25 C 93.28125 400.507812 93.652344 399.765625 94.03125 399 C 93.292969 398.671875 92.554688 398.339844 91.792969 398 C 91.210938 391.941406 94.398438 388.699219 98.578125 384.25 C 102.589844 380.238281 106.941406 376.652344 111.484375 373.125 C 114.140625 371.085938 114.140625 371.085938 116.285156 369.0625 C 118.777344 366.832031 120.742188 365.265625 124.226562 364.542969 C 131.046875 364.597656 135.5 367.925781 140.820312 371.414062 C 161.558594 384.769531 189.617188 385.980469 214.105469 382.671875 C 236.773438 379.03125 259.132812 371.121094 279.703125 361.984375 C 292.027344 356.625 304.125 352.691406 317.359375 349.6875 C 318.847656 349.339844 320.335938 348.988281 321.828125 348.640625 C 338.039062 344.871094 338.039062 344.871094 345.34375 344.8125 C 346.140625 344.796875 346.9375 344.785156 347.757812 344.769531 C 350.382812 345 350.382812 345 353.546875 345.996094 C 357.597656 347.140625 360.976562 347.265625 365.214844 347.25 C 366.582031 347.253906 367.949219 347.261719 369.359375 347.265625 C 372.890625 347.320312 372.890625 347.320312 375.007812 345 C 379.902344 345.238281 382.695312 347.042969 386.203125 350 C 386.203125 350.660156 386.203125 351.320312 386.203125 352 C 391.03125 350.007812 394.886719 347.757812 398.9375 344.6875 C 400.011719 343.886719 401.089844 343.085938 402.199219 342.261719 C 403.199219 341.515625 404.203125 340.769531 405.234375 340 C 418.746094 330.117188 436.667969 318.886719 454.890625 320.1875 C 457.570312 320.527344 460.222656 320.933594 462.882812 321.375 C 474.847656 323.679688 474.847656 323.679688 486.882812 323.4375 C 490.421875 322.984375 491.917969 323.339844 495.277344 324.1875 C 507.449219 326.574219 521.726562 320.066406 533.097656 316.367188 C 533.828125 316.132812 534.558594 315.898438 535.3125 315.65625 C 537.015625 315.101562 538.707031 314.527344 540.398438 313.945312 C 544.726562 312.824219 549.027344 312.214844 553.476562 311.585938 C 557.992188 310.925781 562.488281 310.179688 566.980469 309.414062 C 567.824219 309.269531 568.667969 309.128906 569.535156 308.980469 C 571.285156 308.683594 573.039062 308.382812 574.789062 308.085938 C 579.367188 307.304688 583.945312 306.527344 588.527344 305.753906 C 589.425781 305.601562 590.320312 305.449219 591.246094 305.292969 C 598.667969 304.039062 606.089844 302.785156 613.515625 301.5625 C 614.492188 301.398438 615.46875 301.234375 616.476562 301.066406 C 620.40625 300.425781 623.988281 300 628 300 Z M 410.832031 505 C 409.078125 506.566406 409.195312 508.402344 408.800781 510.5625 C 406.683594 520.148438 401.515625 525.996094 394.039062 533 C 396.679688 535.359375 398.269531 535.492188 401.875 536 C 405.832031 530.324219 408.292969 524.589844 410.621094 518.25 C 411.164062 516.832031 411.164062 516.832031 411.71875 515.386719 C 412.058594 514.480469 412.394531 513.574219 412.742188 512.640625 C 413.046875 511.820312 413.351562 511 413.667969 510.15625 C 414.445312 507.832031 414.445312 507.832031 413.070312 505 C 412.332031 505 411.59375 505 410.832031 505 Z M 236.96875 600.8125 C 222.617188 607.332031 208.175781 608.488281 192.75 604.4375 C 191.203125 603.964844 189.65625 603.488281 188.0625 603 C 189.171875 606.960938 190.28125 610.921875 191.421875 615 C 212.039062 616.238281 229.539062 610.867188 247.394531 602 C 246.839844 600.019531 246.839844 600.019531 246.273438 598 C 242.207031 598 240.507812 599.054688 236.96875 600.8125 Z M 236.96875 600.8125 "/>
<path style=" stroke:none;fill-rule:nonzero;fill:rgb(99.215686%,99.607843%,0.392157%);fill-opacity:1;" d="M 389.980469 410.6875 C 391.050781 410.648438 392.121094 410.613281 393.226562 410.574219 C 397.238281 411.132812 398.304688 412.132812 400.753906 415 C 402.621094 418.3125 402.621094 418.3125 404.324219 422 C 405.179688 423.824219 405.179688 423.824219 406.050781 425.6875 C 408.832031 432.167969 409.589844 437.824219 407.472656 444.5625 C 403.8125 450.179688 398.9375 454.710938 391.730469 456.4375 C 384.402344 457.507812 376.808594 457.15625 369.410156 457 C 372.320312 462.410156 375.292969 465.335938 380.824219 468.738281 C 382.84375 470 382.84375 470 385.082031 472 C 386.121094 472.269531 387.160156 472.535156 388.230469 472.8125 C 392.433594 474.210938 394.515625 475.96875 397.398438 479 C 397.398438 479.660156 397.398438 480.320312 397.398438 481 C 398.503906 481.328125 399.613281 481.660156 400.753906 482 C 402.71875 483.925781 402.71875 483.925781 404.742188 486.3125 C 405.414062 487.09375 406.085938 487.871094 406.777344 488.675781 C 408.59375 491 408.59375 491 409.742188 493.167969 C 410.824219 495.339844 410.824219 495.339844 414.1875 497 C 414.164062 495.941406 414.136719 494.878906 414.109375 493.789062 C 414.089844 492.402344 414.070312 491.011719 414.050781 489.625 C 414.03125 488.925781 414.011719 488.226562 413.992188 487.507812 C 413.972656 485.671875 414.074219 483.832031 414.1875 482 C 416.429688 480 416.429688 480 419.175781 479.949219 C 422.023438 481 422.023438 481 423.757812 484.019531 C 424.421875 485.898438 424.421875 485.898438 425.101562 487.8125 C 425.789062 489.679688 425.789062 489.679688 426.484375 491.582031 C 426.859375 492.710938 427.234375 493.835938 427.621094 495 C 427.851562 495.683594 428.082031 496.363281 428.320312 497.066406 C 431.203125 510.34375 426.523438 521.921875 418.667969 533 C 413.9375 538.902344 408.636719 544.203125 402.789062 549.234375 C 401.523438 550.335938 400.289062 551.464844 399.105469 552.640625 C 397.675781 554.0625 397.675781 554.0625 395.160156 556 C 392.574219 555.871094 391.390625 555.632812 389.5625 554 C 389.179688 550.832031 389.273438 549.394531 391.242188 546.6875 C 391.792969 546.128906 392.347656 545.574219 392.917969 545 C 392.507812 542.90625 392.507812 542.90625 390.679688 541 C 387.425781 540.515625 384.441406 540.265625 381.164062 540.125 C 373.273438 539.582031 366.023438 538.464844 358.496094 536.25 C 357.6875 536.023438 356.875 535.792969 356.039062 535.558594 C 350.394531 533.804688 345.164062 531.273438 341.425781 527 C 341.425781 525.679688 341.425781 524.359375 341.425781 523 C 339.621094 521.5625 339.621094 521.5625 337.226562 520.5 C 333.550781 518.699219 330.871094 516.734375 327.992188 514 C 327.367188 514.625 327.367188 514.625 326.730469 515.265625 C 310.792969 531.167969 293.175781 543.539062 268.351562 545.167969 C 263.21875 545.324219 258.117188 545.21875 252.992188 545 C 253.144531 552.988281 254.15625 558.75 258.484375 565.742188 C 260.992188 570.367188 260.34375 574.101562 258.765625 578.800781 C 257.367188 582.367188 255.945312 585.839844 253.902344 589.15625 C 252.660156 591.121094 252.660156 591.121094 253.96875 593.75 C 254.386719 594.492188 254.800781 595.234375 255.230469 596 C 255.851562 595.011719 255.851562 595.011719 256.488281 594 C 258.589844 592 258.589844 592 262.015625 591.625 C 265.304688 592 265.304688 592 267.542969 594 C 267.636719 596.890625 266.886719 598.515625 264.792969 600.707031 C 262.765625 602.515625 260.6875 604.257812 258.589844 606 C 257.730469 606.785156 256.871094 607.566406 255.988281 608.375 C 240.140625 622.261719 224.859375 628.273438 202.652344 628.394531 C 192.675781 628.285156 181.796875 627.222656 173.648438 621.53125 C 171.683594 619.132812 172.179688 616.867188 172.390625 614 C 178.828125 613 178.828125 613 181.347656 613 C 179.046875 599.816406 179.046875 599.816406 171.640625 588.570312 C 167.136719 583.8125 167.652344 577.339844 167.617188 571.453125 C 167.914062 569 167.914062 569 170.152344 566 C 170.890625 566 171.632812 566 172.390625 566 C 172.234375 565.464844 172.074219 564.929688 171.910156 564.378906 C 169.953125 556.9375 169.847656 549.617188 169.921875 542.011719 C 169.945312 539.871094 169.945312 537.730469 169.945312 535.589844 C 169.964844 528.976562 170.179688 522.542969 171.273438 516 C 172.765625 505.035156 172.765625 505.035156 169.25 494.761719 C 166.855469 492.289062 164.371094 489.949219 161.789062 487.636719 C 143.722656 470.355469 136.980469 449.535156 137.460938 426.351562 C 137.691406 423 137.691406 423 138.808594 421 C 143.136719 420.328125 145.433594 420.246094 149.105469 422.535156 C 150.949219 423.945312 152.789062 425.359375 154.628906 426.769531 C 165.183594 434.105469 179.320312 439.25 192.542969 441 C 195.972656 453.113281 198.015625 465.257812 198.875 477.730469 C 199.289062 480.171875 200.25 481.816406 201.496094 484 C 201.449219 484.96875 201.40625 485.9375 201.355469 486.9375 C 201.539062 490.890625 202.839844 492.277344 205.976562 495 C 208.359375 495.871094 208.359375 495.871094 210.453125 496 C 209.921875 494.90625 209.390625 493.8125 208.84375 492.6875 C 206.386719 487.632812 206.042969 484.527344 207.09375 479 C 208.203125 479 209.3125 479 210.453125 479 C 211.570312 484 211.570312 484 211.921875 486.5 C 212.925781 489.765625 214.539062 491.582031 217.167969 494 C 219.554688 494.871094 219.554688 494.871094 221.648438 495 C 220.226562 490.585938 220.226562 490.585938 217.167969 487 C 216.949219 484.835938 216.949219 484.835938 217.03125 482.375 C 217.050781 481.558594 217.070312 480.742188 217.089844 479.898438 C 217.117188 479.273438 217.144531 478.644531 217.167969 478 C 217.90625 478 218.648438 478 219.40625 478 C 219.871094 479.050781 220.332031 480.105469 220.808594 481.1875 C 222.457031 484.597656 224.320312 487.308594 227.246094 490 C 229.628906 490.871094 229.628906 490.871094 231.722656 491 C 230.628906 487.503906 229.660156 485.191406 227.035156 482.375 C 225.003906 480 225.003906 480 225.285156 477.6875 C 225.5625 477.128906 225.839844 476.574219 226.125 476 C 227.601562 476 229.078125 476 230.601562 476 C 230.855469 477.21875 231.109375 478.433594 231.371094 479.6875 C 232.570312 483.964844 234.445312 486.28125 238.4375 489 C 239.917969 489 241.394531 489 242.917969 489 C 242.488281 485.671875 241.453125 484.65625 238.859375 482.0625 C 236.199219 479 236.199219 479 236.410156 476.125 C 236.710938 475.421875 237.011719 474.722656 237.320312 474 C 238.425781 474 239.535156 474 240.675781 474 C 242.15625 476.640625 243.632812 479.28125 245.15625 482 C 246.261719 482 247.371094 482 248.511719 482 C 247.960938 477.546875 247.960938 477.546875 247.394531 473 C 250.753906 476 250.753906 476 253.480469 479.125 C 256.554688 482.265625 256.554688 482.265625 260.828125 483 C 259.40625 478.175781 259.40625 478.175781 255.230469 475 C 255.363281 474.347656 255.5 473.691406 255.636719 473.019531 C 256.667969 468.003906 257.671875 462.988281 258.628906 457.964844 C 258.816406 456.972656 259.007812 455.976562 259.203125 454.953125 C 259.59375 452.910156 259.980469 450.863281 260.367188 448.8125 C 260.554688 447.832031 260.742188 446.851562 260.9375 445.839844 C 261.105469 444.957031 261.269531 444.074219 261.445312 443.164062 C 261.945312 441 261.945312 441 263.066406 439 C 289.40625 429.058594 318.648438 433.128906 344.753906 441.265625 C 349.011719 442.1875 352.722656 442.117188 357.097656 442 C 357.652344 440.9375 358.210938 439.875 358.78125 438.78125 C 364.875 427.363281 373.890625 411.054688 389.980469 410.6875 Z M 410.832031 505 C 409.078125 506.566406 409.195312 508.402344 408.800781 510.5625 C 406.683594 520.148438 401.515625 525.996094 394.039062 533 C 396.679688 535.359375 398.269531 535.492188 401.875 536 C 405.832031 530.324219 408.292969 524.589844 410.621094 518.25 C 411.164062 516.832031 411.164062 516.832031 411.71875 515.386719 C 412.058594 514.480469 412.394531 513.574219 412.742188 512.640625 C 413.046875 511.820312 413.351562 511 413.667969 510.15625 C 414.445312 507.832031 414.445312 507.832031 413.070312 505 C 412.332031 505 411.59375 505 410.832031 505 Z M 236.96875 600.8125 C 222.617188 607.332031 208.175781 608.488281 192.75 604.4375 C 191.203125 603.964844 189.65625 603.488281 188.0625 603 C 189.171875 606.960938 190.28125 610.921875 191.421875 615 C 212.039062 616.238281 229.539062 610.867188 247.394531 602 C 246.839844 600.019531 246.839844 600.019531 246.273438 598 C 242.207031 598 240.507812 599.054688 236.96875 600.8125 Z M 236.96875 600.8125 "/>
<path style=" stroke:none;fill-rule:nonzero;fill:rgb(40.392157%,42.352942%,43.137255%);fill-opacity:1;" d="M 251.871094 557 C 257.210938 561.113281 259.382812 565.523438 260.199219 571.75 C 259.945312 577.808594 257.148438 583.890625 253.902344 589.15625 C 252.660156 591.121094 252.660156 591.121094 253.96875 593.75 C 254.386719 594.492188 254.800781 595.234375 255.230469 596 C 255.644531 595.339844 256.0625 594.679688 256.488281 594 C 258.589844 592 258.589844 592 262.015625 591.625 C 265.304688 592 265.304688 592 267.542969 594 C 267.636719 596.890625 266.886719 598.515625 264.792969 600.707031 C 262.765625 602.515625 260.6875 604.257812 258.589844 606 C 257.730469 606.785156 256.871094 607.566406 255.988281 608.375 C 240.140625 622.261719 224.859375 628.273438 202.652344 628.394531 C 192.675781 628.285156 181.796875 627.222656 173.648438 621.53125 C 171.683594 619.132812 172.179688 616.867188 172.390625 614 C 178.828125 613 178.828125 613 181.347656 613 C 179.046875 599.816406 179.046875 599.816406 171.640625 588.570312 C 167.136719 583.8125 167.652344 577.339844 167.617188 571.453125 C 167.914062 569 167.914062 569 170.152344 566 C 170.972656 566.324219 171.796875 566.648438 172.640625 566.984375 C 178.703125 568.441406 184.542969 568.289062 190.792969 568.25 C 192.652344 568.261719 192.652344 568.261719 194.546875 568.273438 C 201.046875 568.257812 206.480469 567.859375 212.691406 566 C 216.449219 565.28125 220.242188 564.726562 224.027344 564.144531 C 228.628906 563.410156 232.910156 562.375 237.320312 561 C 239.039062 560.597656 240.761719 560.21875 242.496094 559.875 C 243.320312 559.707031 244.140625 559.539062 244.988281 559.367188 C 247.394531 559 247.394531 559 251.871094 559 C 251.871094 558.339844 251.871094 557.679688 251.871094 557 Z M 236.96875 600.8125 C 222.617188 607.332031 208.175781 608.488281 192.75 604.4375 C 191.203125 603.964844 189.65625 603.488281 188.0625 603 C 189.171875 606.960938 190.28125 610.921875 191.421875 615 C 212.039062 616.238281 229.539062 610.867188 247.394531 602 C 246.839844 600.019531 246.839844 600.019531 246.273438 598 C 242.207031 598 240.507812 599.054688 236.96875 600.8125 Z M 236.96875 600.8125 "/>
<path style=" stroke:none;fill-rule:nonzero;fill:rgb(0.784314%,99.607843%,98.823529%);fill-opacity:1;" d="M 391.800781 409 C 391.800781 409.328125 391.800781 409.660156 391.800781 410 C 390.691406 410.207031 389.582031 410.414062 388.441406 410.625 C 378.542969 413.203125 369.808594 421.144531 364.789062 428.96875 C 362.050781 433.574219 359.542969 438.265625 357.097656 443 C 349.773438 443.347656 344.023438 442.164062 337.089844 440.125 C 324.242188 436.417969 312.726562 434.613281 299.167969 434.625 C 297.78125 434.625 296.398438 434.621094 294.972656 434.621094 C 286.148438 434.710938 278.621094 435.367188 270.308594 438.125 C 267.542969 439 267.542969 439 263.066406 439 C 263.226562 437.722656 263.386719 436.445312 263.550781 435.128906 C 264.179688 430.066406 264.78125 425.003906 265.375 419.9375 C 265.476562 419.070312 265.578125 418.207031 265.683594 417.3125 C 265.929688 415.210938 266.175781 413.105469 266.425781 411 C 267.695312 410.503906 268.964844 410.011719 270.273438 409.5 C 275.6875 407.347656 281.066406 405.121094 286.433594 402.875 C 287.273438 402.527344 288.113281 402.175781 288.976562 401.820312 C 289.773438 401.484375 290.570312 401.148438 291.394531 400.804688 C 292.109375 400.503906 292.824219 400.207031 293.5625 399.898438 C 295.820312 398.910156 295.820312 398.910156 298.886719 397 C 301.066406 396.640625 303.265625 396.359375 305.464844 396.125 C 310.796875 395.472656 315.566406 394.457031 320.648438 392.875 C 346 385.722656 369.722656 399.121094 391.800781 409 Z M 391.800781 409 "/>
<path style=" stroke:none;fill-rule:nonzero;fill:rgb(0.784314%,99.607843%,98.431373%);fill-opacity:1;" d="M 121.515625 368.371094 C 129.902344 371.265625 135.253906 374.722656 141.445312 380.429688 C 144.328125 382.933594 147.265625 385.054688 150.492188 387.1875 C 152.234375 388.34375 152.234375 388.34375 154.011719 389.519531 C 156.695312 391.269531 159.402344 392.992188 162.121094 394.699219 C 162.828125 395.144531 163.539062 395.59375 164.269531 396.050781 C 165.648438 396.917969 167.035156 397.78125 168.421875 398.636719 C 171.574219 400.609375 173.589844 402.101562 175.75 405 C 178.347656 406.03125 180.960938 407.03125 183.585938 408 C 186.804688 409.644531 187.875 410.453125 188.984375 413.664062 C 189.148438 414.710938 189.3125 415.761719 189.480469 416.839844 C 189.667969 417.984375 189.855469 419.128906 190.050781 420.308594 C 190.226562 421.507812 190.402344 422.703125 190.582031 423.9375 C 190.777344 425.128906 190.96875 426.324219 191.167969 427.550781 C 191.886719 432.085938 192.542969 436.417969 192.542969 441 C 177.007812 440.511719 161.105469 433.386719 149.722656 424.125 C 146.046875 421.585938 143.390625 421.246094 138.808594 421 C 138.253906 421.988281 138.253906 421.988281 137.691406 423 C 135.84375 423.707031 133.972656 424.367188 132.09375 425 C 131.007812 425.515625 129.921875 426.03125 128.804688 426.5625 C 121.855469 429.476562 113.332031 430.207031 105.894531 428.316406 C 99.226562 425.925781 95.058594 422.832031 91.792969 417 C 91.34375 410.761719 91.140625 404.808594 94.03125 399 C 93.292969 398.671875 92.554688 398.339844 91.792969 398 C 91.210938 391.941406 94.398438 388.699219 98.578125 384.25 C 103.378906 379.445312 108.691406 375.164062 114.183594 371 C 114.910156 370.390625 115.636719 369.777344 116.386719 369.148438 C 118.660156 368 118.660156 368 121.515625 368.371094 Z M 121.515625 368.371094 "/>
<path style=" stroke:none;fill-rule:nonzero;fill:rgb(40.392157%,42.352942%,43.137255%);fill-opacity:1;" d="M 385.082031 473 C 389.589844 473.28125 391.515625 473.785156 395.019531 476.4375 C 397.398438 479 397.398438 479 397.398438 481 C 398.503906 481.328125 399.613281 481.660156 400.753906 482 C 402.71875 483.925781 402.71875 483.925781 404.742188 486.3125 C 405.414062 487.09375 406.085938 487.871094 406.777344 488.675781 C 408.59375 491 408.59375 491 409.742188 493.167969 C 410.824219 495.339844 410.824219 495.339844 414.1875 497 C 414.164062 495.941406 414.136719 494.878906 414.109375 493.789062 C 414.089844 492.402344 414.070312 491.011719 414.050781 489.625 C 414.03125 488.925781 414.011719 488.226562 413.992188 487.507812 C 413.972656 485.671875 414.074219 483.832031 414.1875 482 C 416.429688 480 416.429688 480 419.175781 479.949219 C 422.023438 481 422.023438 481 423.757812 484.019531 C 424.421875 485.898438 424.421875 485.898438 425.101562 487.8125 C 425.558594 489.054688 426.015625 490.300781 426.484375 491.582031 C 427.046875 493.273438 427.046875 493.273438 427.621094 495 C 427.96875 496.023438 427.96875 496.023438 428.320312 497.066406 C 431.203125 510.34375 426.523438 521.921875 418.667969 533 C 413.9375 538.902344 408.636719 544.203125 402.789062 549.234375 C 401.523438 550.335938 400.289062 551.464844 399.105469 552.640625 C 397.675781 554.0625 397.675781 554.0625 395.160156 556 C 392.574219 555.871094 391.390625 555.632812 389.5625 554 C 389.179688 550.832031 389.273438 549.394531 391.242188 546.6875 C 391.792969 546.128906 392.347656 545.574219 392.917969 545 C 392.507812 542.90625 392.507812 542.90625 390.679688 541 C 387.425781 540.515625 384.441406 540.265625 381.164062 540.125 C 373.273438 539.582031 366.023438 538.464844 358.496094 536.25 C 357.6875 536.023438 356.875 535.792969 356.039062 535.558594 C 350.394531 533.804688 345.164062 531.273438 341.425781 527 C 341.425781 525.679688 341.425781 524.359375 341.425781 523 C 342.371094 522.792969 343.320312 522.585938 344.292969 522.371094 C 358.335938 518.964844 363.875 514.078125 370.949219 503.0625 C 371.433594 502.28125 371.914062 501.496094 372.40625 500.691406 C 372.859375 499.957031 373.3125 499.226562 373.777344 498.472656 C 374.175781 497.804688 374.578125 497.136719 374.988281 496.449219 C 375.363281 495.972656 375.742188 495.492188 376.128906 495 C 376.867188 495 377.605469 495 378.367188 495 C 378.472656 493.761719 378.472656 493.761719 378.578125 492.5 C 379.425781 489.234375 380.261719 487.707031 382.285156 485 C 384.753906 481.675781 385.988281 479.070312 386.203125 475 C 385.648438 474.011719 385.648438 474.011719 385.082031 473 Z M 410.832031 505 C 409.078125 506.566406 409.195312 508.402344 408.800781 510.5625 C 406.683594 520.148438 401.515625 525.996094 394.039062 533 C 396.679688 535.359375 398.269531 535.492188 401.875 536 C 405.832031 530.324219 408.292969 524.589844 410.621094 518.25 C 411.164062 516.832031 411.164062 516.832031 411.71875 515.386719 C 412.058594 514.480469 412.394531 513.574219 412.742188 512.640625 C 413.046875 511.820312 413.351562 511 413.667969 510.15625 C 414.445312 507.832031 414.445312 507.832031 413.070312 505 C 412.332031 505 411.59375 505 410.832031 505 Z M 410.832031 505 "/>
<path style=" stroke:none;fill-rule:nonzero;fill:rgb(1.176471%,1.176471%,0%);fill-opacity:1;" d="M 19.03125 230 C 19.769531 230.988281 20.507812 231.980469 21.269531 233 C 22.539062 233.617188 23.808594 234.238281 25.117188 234.875 C 30.910156 237.757812 32.414062 241.5 34.351562 247 C 36.292969 253.863281 37.632812 261.445312 34.917969 268.273438 C 31.9375 272.636719 28.046875 274.207031 22.703125 275.6875 C 19.617188 276.066406 17.523438 275.839844 14.550781 275 C 7.097656 269.75 1.078125 260.554688 -0.535156 252.253906 C -0.734375 246.917969 0.230469 242.625 3.359375 238 C 8.011719 233.675781 11.996094 230 19.03125 230 Z M 19.03125 230 "/>
<path style=" stroke:none;fill-rule:nonzero;fill:rgb(97.647059%,99.215686%,1.568628%);fill-opacity:1;" d="M 96.269531 398 C 108.699219 399.339844 123.542969 402.523438 133.210938 410 C 135.792969 413.359375 136.609375 417.09375 137.691406 421 C 131.660156 425.667969 126.628906 428.222656 118.660156 429 C 117.410156 429.125 117.410156 429.125 116.136719 429.25 C 109.511719 429.578125 104.113281 428.183594 98.511719 425 C 94.917969 422.003906 91.988281 418.890625 91.527344 414.425781 C 91.34375 407.644531 91.773438 403.527344 96.269531 398 Z M 96.269531 398 "/>
<path style=" stroke:none;fill-rule:nonzero;fill:rgb(95.294118%,79.607844%,0%);fill-opacity:1;" d="M 362.695312 26 C 379.132812 24.878906 393.621094 28.671875 406.351562 38 C 412.820312 43.167969 418.128906 48.015625 420.976562 55.4375 C 422.558594 59.519531 422.558594 59.519531 424.390625 63.515625 C 425.496094 66.28125 425.609375 68.390625 425.523438 71.3125 C 425.503906 72.195312 425.484375 73.078125 425.460938 73.988281 C 425.4375 74.652344 425.410156 75.316406 425.382812 76 C 420.664062 74.59375 419.238281 71.53125 416.707031 67.9375 C 406.222656 53.550781 393.988281 45.421875 377.246094 37 C 375.847656 36.25 374.449219 35.5 373.050781 34.75 C 368.929688 32.769531 364.867188 31.382812 360.457031 30 C 361.195312 28.679688 361.933594 27.359375 362.695312 26 Z M 362.695312 26 "/>
<path style=" stroke:none;fill-rule:nonzero;fill:rgb(5.882353%,5.882353%,0%);fill-opacity:1;" d="M 149.375 180.5 C 153.390625 181.199219 155.140625 182.707031 157.648438 185.546875 C 161.128906 192.0625 159.804688 200.40625 157.488281 207.125 C 156.898438 208.429688 156.273438 209.726562 155.601562 211 C 155.160156 211.84375 154.722656 212.691406 154.269531 213.5625 C 151.507812 215.523438 148.984375 215.617188 145.519531 215.445312 C 141.617188 214.667969 140.023438 212.796875 137.691406 210 C 133.742188 203.800781 133.058594 197.574219 134.972656 190.6875 C 136.367188 187.105469 137.832031 184.457031 141.046875 182 C 143.8125 181.285156 146.558594 181.015625 149.375 180.5 Z M 149.375 180.5 "/>
<path style=" stroke:none;fill-rule:nonzero;fill:rgb(3.921569%,3.921569%,0%);fill-opacity:1;" d="M 54.851562 159 C 59.953125 159.554688 59.953125 159.554688 61.570312 161 C 62.28125 169.109375 61.140625 180.117188 55.972656 187 C 52.261719 188.125 52.261719 188.125 48.136719 188 C 43.792969 184.78125 42.726562 183.253906 41.980469 178.25 C 42.40625 172.734375 43.382812 166.03125 48.117188 162.207031 C 50.375 161 50.375 161 52.613281 161 C 53.351562 160.339844 54.089844 159.679688 54.851562 159 Z M 54.851562 159 "/>
<path style=" stroke:none;fill-rule:nonzero;fill:rgb(36.078432%,30.19608%,9.411765%);fill-opacity:1;" d="M 156.71875 93 C 161.175781 92.910156 165.628906 92.859375 170.082031 92.8125 C 171.332031 92.789062 172.585938 92.761719 173.871094 92.734375 C 185.410156 92.644531 193.636719 94.84375 203.246094 100.4375 C 203.949219 100.820312 204.652344 101.203125 205.375 101.59375 C 207.378906 102.746094 207.378906 102.746094 210.453125 105 C 210.453125 106.320312 210.453125 107.640625 210.453125 109 C 204.972656 108.289062 201.453125 106.253906 196.898438 103.570312 C 188.15625 99.328125 179.929688 98.507812 170.082031 98.3125 C 168.902344 98.277344 167.71875 98.246094 166.5 98.210938 C 163.613281 98.128906 160.726562 98.058594 157.839844 98 C 157.46875 96.351562 157.101562 94.699219 156.71875 93 Z M 156.71875 93 "/>
<path style=" stroke:none;fill-rule:nonzero;fill:rgb(95.686275%,80.784315%,0%);fill-opacity:1;" d="M 212.691406 10 C 213.246094 12.476562 213.246094 12.476562 213.8125 15 C 213.035156 15.074219 212.261719 15.148438 211.460938 15.226562 C 203.523438 16.179688 196.726562 18.046875 189.46875 20.96875 C 185.074219 22.683594 181.65625 23.300781 176.871094 23 C 177.441406 18.4375 177.441406 18.4375 179.832031 16.523438 C 190.339844 11.550781 200.804688 9.367188 212.691406 10 Z M 212.691406 10 "/>
<path style=" stroke:none;fill-rule:nonzero;fill:rgb(95.686275%,81.568629%,0%);fill-opacity:1;" d="M 94.03125 412 C 98.890625 412.5 101.621094 415.25 105.226562 418 C 109.253906 420.328125 113.09375 420.390625 117.820312 420.625 C 119.234375 420.699219 120.648438 420.773438 122.105469 420.851562 C 123.183594 420.902344 124.265625 420.949219 125.375 421 C 126.003906 422.9375 126.003906 422.9375 126.496094 425 C 124.472656 426.808594 121.609375 426.339844 118.871094 426.4375 C 110.578125 426.398438 104.1875 424.203125 97.390625 420 C 94.214844 416.984375 94.03125 416.34375 94.03125 412 Z M 94.03125 412 "/>
<path style=" stroke:none;fill-rule:nonzero;fill:rgb(95.686275%,81.568629%,0%);fill-opacity:1;" d="M 399.636719 438 C 401.113281 438 402.589844 438 404.113281 438 C 403.203125 443.984375 399.667969 447.671875 395.160156 452 C 389.742188 455.472656 384.785156 455.34375 378.367188 455 C 377.738281 453.0625 377.738281 453.0625 377.246094 451 C 379.039062 449.398438 381.230469 449.453125 383.683594 449.0625 C 389.652344 448.121094 389.652344 448.121094 395.160156 446 C 396.554688 443.589844 396.554688 443.589844 397.398438 441 C 398.136719 440.011719 398.875 439.019531 399.636719 438 Z M 399.636719 438 "/>
<path style=" stroke:none;fill-rule:nonzero;fill:rgb(35.686275%,29.803923%,9.411765%);fill-opacity:1;" d="M 98.511719 87 C 98.511719 87.988281 98.511719 88.980469 98.511719 90 C 96.746094 90.183594 96.746094 90.183594 94.945312 90.367188 C 86.6875 91.238281 78.605469 92.195312 70.523438 94 C 69.054688 89.585938 69.054688 89.585938 70.453125 87.25 C 77.484375 83.445312 91.351562 83.589844 98.511719 87 Z M 98.511719 87 "/>
<path style=" stroke:none;fill-rule:nonzero;fill:rgb(78.823531%,80.000001%,77.64706%);fill-opacity:1;" d="M 399.636719 520 C 399.636719 521.320312 399.636719 522.640625 399.636719 524 C 397.515625 525.742188 395.542969 527.164062 393.199219 528.625 C 391.40625 529.789062 391.40625 529.789062 389.578125 530.976562 C 384.882812 533.792969 382.109375 535.273438 376.40625 535.125 C 375.511719 535.105469 374.617188 535.089844 373.695312 535.070312 C 373.023438 535.046875 372.347656 535.023438 371.652344 535 C 371.652344 533.679688 371.652344 532.359375 371.652344 531 C 373.105469 530.792969 374.558594 530.585938 376.058594 530.375 C 382.777344 529.058594 388.882812 525.921875 393.488281 521.308594 C 395.160156 520 395.160156 520 399.636719 520 Z M 399.636719 520 "/>
<path style=" stroke:none;fill-rule:nonzero;fill:rgb(74.901962%,76.47059%,74.509805%);fill-opacity:1;" d="M 176.871094 586 C 179.457031 586.25 179.457031 586.25 182.46875 587 C 182.929688 587.640625 183.390625 588.277344 183.867188 588.9375 C 186.632812 591.847656 189.175781 592.019531 193.3125 592.75 C 195.292969 593.113281 195.292969 593.113281 197.3125 593.484375 C 198.324219 593.65625 199.335938 593.824219 200.378906 594 C 200.007812 595.648438 199.640625 597.300781 199.257812 599 C 190.886719 599.625 185.503906 597.261719 179.109375 592.5 C 176.871094 590 176.871094 590 176.871094 586 Z M 176.871094 586 "/>
<path style=" stroke:none;fill-rule:nonzero;fill:rgb(12.156863%,81.960785%,81.960785%);fill-opacity:1;" d="M 177.988281 406 C 181.867188 407.25 184.988281 408.523438 188.0625 411 C 188.898438 413.113281 188.898438 413.113281 189.277344 415.527344 C 189.417969 416.402344 189.558594 417.277344 189.707031 418.179688 C 189.898438 419.542969 189.898438 419.542969 190.09375 420.9375 C 190.242188 421.84375 190.390625 422.75 190.546875 423.6875 C 191.675781 431.019531 191.675781 431.019531 190.304688 435 C 187.4375 428.429688 186.472656 422.671875 186.171875 415.625 C 186.058594 414.757812 185.941406 413.890625 185.824219 413 C 185.085938 412.671875 184.347656 412.339844 183.585938 412 C 183.585938 411.339844 183.585938 410.679688 183.585938 410 C 182.476562 410 181.371094 410 180.226562 410 C 179.488281 408.679688 178.75 407.359375 177.988281 406 Z M 177.988281 406 "/>
<path style=" stroke:none;fill-rule:nonzero;fill:rgb(92.941177%,93.333334%,4.705882%);fill-opacity:1;" d="M 226.125 476 C 227.601562 476 229.078125 476 230.601562 476 C 231.148438 478.019531 231.695312 480.035156 232.242188 482.054688 C 232.785156 484.058594 232.785156 484.058594 233.960938 486 C 233.648438 487.675781 233.28125 489.347656 232.839844 491 C 232.472656 491 232.101562 491 231.722656 491 C 231.445312 490.113281 231.167969 489.226562 230.882812 488.3125 C 229.679688 484.921875 229.679688 484.921875 227.035156 482.375 C 225.003906 480 225.003906 480 225.285156 477.6875 C 225.5625 477.128906 225.839844 476.574219 226.125 476 Z M 226.125 476 "/>
<path style=" stroke:none;fill-rule:nonzero;fill:rgb(84.313726%,84.705883%,10.980392%);fill-opacity:1;" d="M 350.382812 345 C 358.140625 345.328125 365.898438 345.660156 373.890625 346 C 373.519531 346.660156 373.152344 347.320312 372.769531 348 C 370.296875 348.054688 367.824219 348.09375 365.355469 348.125 C 363.976562 348.148438 362.601562 348.171875 361.183594 348.195312 C 357.160156 348.003906 354.113281 347.300781 350.382812 346 C 350.382812 345.671875 350.382812 345.339844 350.382812 345 Z M 350.382812 345 "/>
<path style=" stroke:none;fill-rule:nonzero;fill:rgb(83.92157%,100%,15.686275%);fill-opacity:1;" d="M 380.605469 414 C 378.960938 417.398438 376.820312 419.648438 373.890625 422.25 C 373.105469 422.957031 372.320312 423.664062 371.511719 424.390625 C 369.410156 426 369.410156 426 367.171875 426 C 368.816406 422.601562 370.957031 420.351562 373.890625 417.75 C 374.675781 417.042969 375.460938 416.335938 376.269531 415.609375 C 378.367188 414 378.367188 414 380.605469 414 Z M 380.605469 414 "/>
<path style=" stroke:none;fill-rule:nonzero;fill:rgb(82.745099%,83.529413%,12.156863%);fill-opacity:1;" d="M 311.203125 351 C 307.828125 353.011719 305.363281 353.726562 301.476562 354.625 C 299.808594 355.015625 299.808594 355.015625 298.105469 355.414062 C 297.253906 355.609375 296.40625 355.800781 295.53125 356 C 296.417969 354.046875 296.417969 354.046875 297.769531 352 C 302.265625 351.089844 306.601562 350.875 311.203125 351 Z M 311.203125 351 "/>
</g>
</svg>
